<svg width="60" height="51" viewBox="0 0 60 51" fill="none" xmlns="http://www.w3.org/2000/svg">
<path fill-rule="evenodd" clip-rule="evenodd" d="M24.7512 0.719141C32.9993 -0.303174 41.9159 -0.994133 48.4885 4.16781C55.6993 9.83105 61.0323 19.0942 59.8304 28.2696C58.6965 36.9264 50.1857 42.0468 42.9156 46.713C37.467 50.2101 31.1507 51.5691 24.7512 50.7847C19.1417 50.097 14.6946 46.5835 10.5002 42.7395C5.97471 38.592 0.979905 34.4067 0.184146 28.2696C-0.698591 21.4618 1.63983 14.5021 6.1788 9.41195C10.9352 4.07796 17.7168 1.59103 24.7512 0.719141Z" fill="#7366FF" fill-opacity="0.1"/>
<g clip-path="url(#clip0_1506_970)">
<path d="M44.9055 39.1448L42.6792 40.4814H32.9077L31.6075 38.6109C31.6075 35.549 31.3591 34.8516 31.5991 33.2675C31.6782 32.7521 30.8643 31.1778 31.312 30.9089C31.7689 30.6352 32.2389 30.3919 32.7073 30.1767C32.709 30.1767 32.7106 30.1758 32.7123 30.175C33.118 29.9879 33.5221 29.8229 33.9154 29.6753C35.4855 29.0857 36.8808 28.7946 37.4812 28.6865C37.6873 28.6494 37.8984 28.6494 38.1055 28.6865C38.705 28.7946 40.1003 29.0857 41.6704 29.6753C42.5198 29.9928 43.4211 30.3977 44.2737 30.9089C44.7216 31.1778 43.7783 32.7521 43.8574 33.2675C44.0974 34.8516 44.9055 36.0829 44.9055 39.1448Z" fill="#7366FF"/>
<path d="M32.7126 30.1748C32.3663 30.4651 32.1304 30.9541 32.0694 31.5057C31.8822 33.2119 31.4864 37.1826 31.4864 40.4811H29.7373C29.7373 37.4193 31.3594 34.8514 31.5994 33.2672C31.6786 32.7518 30.8646 31.1775 31.3124 30.9087C31.7693 30.635 32.2393 30.3917 32.7077 30.1764C32.7093 30.1765 32.711 30.1757 32.7126 30.1748Z" fill="#3D4FC3"/>
<path d="M35.2529 33.3887C35.2529 33.3887 35.6866 34.1742 36.3872 35.016C36.7812 35.4895 37.2596 34.9487 37.7929 35.3281C38.3261 34.9487 38.8045 35.4896 39.1985 35.0162C39.8993 34.1743 40.3329 33.3887 40.3329 33.3887V30.1746H35.2529V33.3887Z" fill="#ECF4FF"/>
<path d="M39.1986 35.016C38.8048 35.4895 38.3263 35.9808 37.7932 36.3604C37.26 35.9808 36.7815 35.4895 36.3877 35.016L37.7932 33.2522L39.1986 35.016Z" fill="#D57080"/>
<path d="M35.2529 31.2226L37.7931 33.6646L40.3332 31.2226L37.582 29.467" fill="#D57080"/>
<path d="M33.5158 36.3144C33.2973 37.2125 32.9081 39.0167 32.9081 40.4814H29.7373C29.7373 37.4195 30.242 33.7341 30.482 32.15C30.5611 31.6346 30.8646 31.1778 31.3124 30.9089C31.6018 31.0582 31.8558 31.2371 32.0785 31.4367C33.1496 32.399 33.4993 33.8496 33.6115 34.7987C33.6717 35.3058 33.6371 35.8188 33.5158 36.3144Z" fill="#ECF4FF"/>
<path d="M45.8497 40.4811H42.6797C42.6797 39.0171 42.2902 37.2124 42.0716 36.3143C41.9509 35.8186 41.9161 35.3061 41.9759 34.7993C42.1112 33.653 42.5937 31.774 44.2743 30.9092C44.7222 31.1779 45.0258 31.6343 45.1047 32.1504C45.3449 33.7343 45.8497 37.4198 45.8497 40.4811Z" fill="#ECF4FF"/>
<path d="M32.0785 31.4367C32.0752 31.4598 32.0718 31.4828 32.0694 31.506C31.8822 33.2121 31.4864 37.1828 31.4864 40.4814H29.7373C29.7373 37.4195 30.242 33.7341 30.482 32.15C30.5611 31.6346 30.8646 31.1778 31.3124 30.9089C31.6018 31.0582 31.8558 31.2371 32.0785 31.4367Z" fill="#DDEAFB"/>
<path d="M41.6709 29.6749L40.3336 33.3888L37.7934 30.9468L35.2533 33.3888L33.916 29.6749C35.4858 29.0855 36.8813 28.7947 37.4813 28.6867C37.6882 28.649 37.8987 28.649 38.1055 28.6867C38.7055 28.7947 40.1011 29.0855 41.6709 29.6749Z" fill="#DDEAFB"/>
<path d="M47.2785 19.0829L42.9746 23.9608L33.3551 19.2804L27.6748 19.3612C27.6748 19.3612 24.822 15.1901 25.6866 11.1133C26.5512 7.03755 31.8012 9.50778 31.8012 9.50778C31.8012 9.50778 34.657 5.14771 38.424 5.14771C44.0216 5.14771 46.3779 10.4961 48.9104 8.58185C48.9104 8.58185 52.2315 14.86 47.2785 19.0829Z" fill="#9D6B6B"/>
<path d="M33.3551 19.2805L27.6748 19.3612C27.6748 19.3612 24.822 15.1901 25.6866 11.1134C26.5512 7.03757 31.8012 9.5078 31.8012 9.5078C31.8012 9.5078 30.0009 12.5174 33.2636 14.9194C34.3162 15.6935 34.1136 17.3682 33.3551 19.2805Z" fill="#8B5E5E"/>
<path d="M39.7224 25.7976V29.0182C39.7224 30.0831 38.859 30.9465 37.7941 30.9465C36.7288 30.9465 35.8652 30.0831 35.8652 29.0182V25.7976H39.7224Z" fill="#FFDDCE"/>
<path d="M38.4237 30.8413C38.2265 30.9092 38.0146 30.9463 37.7941 30.9463C36.7287 30.9463 35.8652 30.0828 35.8652 29.018V25.7974H37.1245V29.018C37.1245 29.8629 37.6677 30.5807 38.4237 30.8413Z" fill="#FFCBBE"/>
<path d="M29.7374 23.1158C28.3469 23.1158 27.2197 21.9886 27.2197 20.5982C27.2197 20.4068 27.2411 20.2204 27.2815 20.0413C27.6082 18.5948 29.7374 18.8321 29.7374 20.315H45.8504C45.8504 18.8321 47.9796 18.5948 48.3062 20.0413C48.3467 20.2204 48.368 20.4068 48.368 20.5982C48.368 21.9886 47.2408 23.1158 45.8504 23.1158" fill="#FFCBBE"/>
<path d="M45.8349 22.0289C45.7188 22.0289 45.6015 21.9944 45.4988 21.9228C45.2334 21.7376 45.1698 21.3705 45.3549 21.1051C45.3759 21.0751 45.568 20.8062 45.8813 20.5823C46.36 20.24 46.8966 20.1617 47.3916 20.3615C47.6918 20.4826 47.8369 20.824 47.7158 21.1241C47.5947 21.4241 47.2532 21.5694 46.9532 21.4482C46.6513 21.3263 46.3165 21.7749 46.3132 21.7794C46.1997 21.9423 46.0189 22.0289 45.8349 22.0289Z" fill="#EAAC9D"/>
<path d="M35.8652 25.7976H39.7224V28.7646H35.8652V25.7976Z" fill="#FFCBBE"/>
<path d="M45.8505 17.3574V21.8713C45.8505 25.1146 43.2216 27.7435 39.9783 27.7435H35.6095C32.3662 27.7435 29.7373 25.1146 29.7373 21.8713V17.3574C31.818 17.3574 33.5054 15.671 33.5054 13.5903C33.5054 13.5903 33.5355 13.6185 33.595 13.6702C34.226 14.2145 38.2034 17.3574 45.8505 17.3574Z" fill="#FFDDCE"/>
<path d="M39.4671 27.7435H35.6095C32.3662 27.7435 29.7373 25.1146 29.7373 21.8713V17.3574C31.818 17.3574 33.5054 15.671 33.5054 13.5903C33.5054 13.5903 33.5355 13.6185 33.595 13.6702V21.8713C33.595 25.1146 36.2239 27.7435 39.4671 27.7435Z" fill="#FFCBBE"/>
<path d="M43.1079 22.522C43.8363 22.522 44.4267 22.163 44.4267 21.7201C44.4267 21.2772 43.8363 20.9182 43.1079 20.9182C42.3795 20.9182 41.7891 21.2772 41.7891 21.7201C41.7891 22.163 42.3795 22.522 43.1079 22.522Z" fill="#EAAFA5"/>
<path d="M32.479 22.522C33.2074 22.522 33.7978 22.163 33.7978 21.7201C33.7978 21.2772 33.2074 20.9182 32.479 20.9182C31.7506 20.9182 31.1602 21.2772 31.1602 21.7201C31.1602 22.163 31.7506 22.522 32.479 22.522Z" fill="#EAAFA5"/>
<path d="M37.7936 24.5681C37.2203 24.5681 36.6813 24.3448 36.2758 23.9395C36.0343 23.6979 36.0343 23.3063 36.2759 23.0648C36.5173 22.8232 36.909 22.8233 37.1506 23.0648C37.3224 23.2366 37.5507 23.3311 37.7936 23.3311C38.0365 23.3311 38.2649 23.2365 38.4368 23.0647C38.6783 22.8231 39.0699 22.8232 39.3115 23.0647C39.5529 23.3062 39.5529 23.6978 39.3114 23.9394C38.906 24.3448 38.367 24.5681 37.7936 24.5681Z" fill="#D57080"/>
<path d="M20.4163 5.14795C26.1692 5.14795 30.8328 9.81154 30.8328 15.5644V25.4512C30.8328 28.2453 29.0535 30.7292 26.408 31.6283L20.4164 33.6647L14.4248 31.6283C11.7792 30.7292 10 28.2453 10 25.4512V15.5644C9.99992 9.81154 14.6635 5.14795 20.4163 5.14795Z" fill="#E4936B"/>
<path d="M17.8781 31.6284L20.4165 33.6647L14.4252 31.6284C11.7797 30.7295 10 28.2451 10 25.4515V15.5644C10 9.81154 14.6636 5.14795 20.4164 5.14795C17.9794 5.14795 16.0035 9.81154 16.0035 15.5644V25.4515C16.0036 28.2451 16.7577 30.7295 17.8781 31.6284Z" fill="#E27D47"/>
<path d="M27.5296 39.1448L25.3032 40.4814H15.5318L14.2315 38.6109C14.2315 35.549 13.9832 34.8516 14.2231 33.2675C14.3022 32.7521 13.4883 31.1778 13.936 30.9089C14.3929 30.6352 14.8629 30.3919 15.3314 30.1767C15.333 30.1767 15.3346 30.1758 15.3363 30.175C15.742 29.9879 16.1461 29.8229 16.5394 29.6753C18.1096 29.0857 19.5048 28.7946 20.1052 28.6865C20.3114 28.6494 20.5225 28.6494 20.7295 28.6865C21.329 28.7946 22.7243 29.0857 24.2944 29.6753C25.1438 29.9928 26.0451 30.3977 26.8978 30.9089C27.3456 31.1778 26.4023 32.7521 26.4814 33.2675C26.7214 34.8516 27.5296 36.0829 27.5296 39.1448Z" fill="#7366FF"/>
<path d="M15.3366 30.175C14.9903 30.4654 14.7545 30.9543 14.6934 31.506C14.5062 33.2122 14.1104 37.1829 14.1104 40.4814H12.3613C12.3613 37.4195 13.9834 34.8516 14.2234 33.2675C14.3026 32.7521 13.4887 31.1778 13.9364 30.909C14.3933 30.6352 14.8633 30.3919 15.3317 30.1767C15.3333 30.1767 15.3349 30.1758 15.3366 30.175Z" fill="#3D4FC3"/>
<path d="M17.877 33.3887C17.877 33.3887 18.3106 34.1742 19.0113 35.016C19.4052 35.4895 19.8837 34.9487 20.417 35.3281C20.9502 34.9487 21.4285 35.4896 21.8225 35.0162C22.5233 34.1743 22.957 33.3887 22.957 33.3887V30.1746H17.877V33.3887Z" fill="#ECF4FF"/>
<path d="M21.8227 35.016C21.4288 35.4895 20.9503 35.9808 20.4172 36.3604C19.884 35.9808 19.4055 35.4895 19.0117 35.016L20.4172 33.2522L21.8227 35.016Z" fill="#D57080"/>
<path d="M17.877 31.2226L20.417 33.6646L22.9572 31.2226L20.2059 29.467" fill="#D57080"/>
<path d="M16.1398 36.3144C15.9212 37.2125 15.532 39.0167 15.532 40.4814H12.3613C12.3613 37.4195 12.866 33.7341 13.106 32.15C13.1852 31.6346 13.4887 31.1778 13.9364 30.9089C14.2259 31.0582 14.4798 31.2371 14.7025 31.4367C15.7737 32.399 16.1234 33.8496 16.2355 34.7987C16.2957 35.3058 16.261 35.8188 16.1398 36.3144Z" fill="#ECF4FF"/>
<path d="M28.4737 40.4811H25.3037C25.3037 39.0171 24.9143 37.2124 24.6956 36.3143C24.5749 35.8186 24.5401 35.3061 24.6 34.7993C24.7353 33.653 25.2177 31.774 26.8983 30.9092C27.3462 31.1779 27.6498 31.6343 27.7287 32.1504C27.9689 33.7343 28.4737 37.4198 28.4737 40.4811Z" fill="#ECF4FF"/>
<path d="M14.7024 31.4367C14.6991 31.4598 14.6958 31.4828 14.6934 31.506C14.5062 33.2121 14.1103 37.1828 14.1103 40.4814H12.3613C12.3613 37.4195 12.866 33.7341 13.106 32.15C13.1852 31.6346 13.4887 31.1778 13.9364 30.9089C14.2258 31.0582 14.4798 31.2371 14.7024 31.4367Z" fill="#DDEAFB"/>
<path d="M24.2949 29.6749L22.9576 33.3888L20.4175 30.9468L17.8773 33.3888L16.54 29.6749C18.1098 29.0855 19.5054 28.7947 20.1054 28.6867C20.3122 28.649 20.5227 28.649 20.7296 28.6867C21.3296 28.7947 22.7252 29.0855 24.2949 29.6749Z" fill="#DDEAFB"/>
<path d="M22.3455 25.7976V29.0182C22.3455 30.0831 21.482 30.9465 20.4172 30.9465C19.3518 30.9465 18.4883 30.0831 18.4883 29.0182V25.7976H22.3455Z" fill="#FFDDCE"/>
<path d="M21.0468 30.8415C20.8495 30.9094 20.6377 30.9465 20.4172 30.9465C19.3518 30.9465 18.4883 30.0831 18.4883 29.0182V25.7976H19.7475V29.0182C19.7476 29.8631 20.2907 30.581 21.0468 30.8415Z" fill="#FFCBBE"/>
<path d="M18.4883 25.7976H22.3455V28.7646H18.4883V25.7976Z" fill="#FFCBBE"/>
<path d="M28.4732 17.4467V21.872C28.4732 25.1147 25.8445 27.744 22.6013 27.744H18.2323C14.9896 27.744 12.3604 25.1152 12.3604 21.872V17.4972C13.3602 17.4682 14.7361 17.2976 16.2182 16.9964C19.2554 16.379 22.7418 15.212 24.3637 13.5901C24.3636 13.5901 25.9681 16.8688 28.4732 17.4467Z" fill="#FFDDCE"/>
<path d="M22.0901 27.7439H18.2323C14.9896 27.7439 12.3604 25.1152 12.3604 21.872V17.4971C13.3602 17.4681 14.7361 17.2975 16.2182 16.9963V21.872C16.2182 25.1146 18.8468 27.7439 22.0901 27.7439Z" fill="#FFCBBE"/>
<path d="M25.1626 23.0911C25.8909 23.0911 26.4814 22.732 26.4814 22.2892C26.4814 21.8463 25.8909 21.4873 25.1626 21.4873C24.4342 21.4873 23.8438 21.8463 23.8438 22.2892C23.8438 22.732 24.4342 23.0911 25.1626 23.0911Z" fill="#EAAFA5"/>
<path d="M15.6714 23.0911C16.3997 23.0911 16.9902 22.732 16.9902 22.2892C16.9902 21.8463 16.3997 21.4873 15.6714 21.4873C14.943 21.4873 14.3525 21.8463 14.3525 22.2892C14.3525 22.732 14.943 23.0911 15.6714 23.0911Z" fill="#EAAFA5"/>
<path d="M34.0161 17.9221C33.5953 17.9221 33.2529 18.4895 33.2529 19.187C33.2529 19.8845 33.5953 20.452 34.0161 20.452C34.4368 20.452 34.7791 19.8845 34.7791 19.187C34.7791 18.4895 34.4368 17.9221 34.0161 17.9221Z" fill="#2B4D66"/>
<path d="M41.5716 20.452C41.9931 20.452 42.3347 19.8856 42.3347 19.187C42.3347 18.4884 41.9931 17.9221 41.5716 17.9221C41.1502 17.9221 40.8086 18.4884 40.8086 19.187C40.8086 19.8856 41.1502 20.452 41.5716 20.452Z" fill="#2B4D66"/>
<path d="M16.7659 18.5637C16.7395 18.5637 15.8528 18.5704 15.8152 18.5707C15.5639 18.5707 15.3594 18.7751 15.3594 19.0265C15.3594 19.2779 15.5639 19.4824 15.8152 19.4824H16.0232C16.0029 19.5981 15.9926 19.7179 15.9926 19.839C15.9926 20.5421 16.3395 21.1142 16.7659 21.1142C17.1924 21.1142 17.5393 20.5422 17.5393 19.839C17.5393 19.1358 17.1923 18.5637 16.7659 18.5637Z" fill="#2B4D66"/>
<path d="M25.0174 18.5707C24.9757 18.5704 24.0351 18.5637 24.0087 18.5637C23.5822 18.5637 23.2354 19.1358 23.2354 19.839C23.2354 20.5422 23.5823 21.1142 24.0087 21.1142C24.4351 21.1142 24.7821 20.5422 24.7821 19.839C24.7821 19.7179 24.7718 19.5981 24.7514 19.4824H25.0174C25.2687 19.4824 25.4732 19.2779 25.4732 19.0265C25.4732 18.7752 25.2687 18.5708 25.0174 18.5707Z" fill="#2B4D66"/>
<path d="M20.417 24.5792C19.8638 24.5792 19.3437 24.3638 18.9526 23.9726C18.7111 23.731 18.7111 23.3395 18.9527 23.0979C19.1942 22.8564 19.5858 22.8564 19.8274 23.0979C19.9849 23.2554 20.1942 23.3422 20.417 23.3422C20.6399 23.3422 20.8492 23.2555 21.0068 23.0979C21.2483 22.8564 21.6399 22.8564 21.8815 23.0979C22.1231 23.3395 22.1231 23.731 21.8815 23.9726C21.4902 24.3638 20.9702 24.5792 20.417 24.5792Z" fill="#D57080"/>
<path d="M12.5117 40.4478H46.5043V44.8521H12.5117V40.4478Z" fill="#8B5E5E"/>
<path d="M47.4378 41.3276H11.5766C11.0855 41.3276 10.6875 40.9296 10.6875 40.4386V39.3083C10.6875 38.8172 11.0855 38.4192 11.5766 38.4192H47.4378C47.9288 38.4192 48.3269 38.8172 48.3269 39.3083V40.4386C48.3269 40.9296 47.9288 41.3276 47.4378 41.3276Z" fill="#9D6B6B"/>
<path d="M13.2942 41.3279H11.5765C11.0858 41.3279 10.6875 40.9297 10.6875 40.4382V39.3084C10.6875 38.8169 11.0858 38.4194 11.5765 38.4194H13.2942C12.8036 38.4194 12.4052 38.8169 12.4052 39.3084V40.4382C12.4052 40.9296 12.8035 41.3279 13.2942 41.3279Z" fill="#8B5E5E"/>
</g>
<defs>
<clipPath id="clip0_1506_970">
<rect width="40" height="40" fill="white" transform="translate(10 5)"/>
</clipPath>
</defs>
</svg>
