<svg width="62" height="54" viewBox="0 0 62 54" fill="none" xmlns="http://www.w3.org/2000/svg">
<path fill-rule="evenodd" clip-rule="evenodd" d="M0.00370925 27.6809C-0.157465 20.01 4.95673 13.4429 10.5612 8.45102C15.7113 3.8639 22.3281 2.67525 29.0576 1.80288C37.239 0.7423 46.2599 -2.21461 52.8237 2.97236C59.8327 8.51113 62.8277 18.5899 61.8046 27.6809C60.862 36.056 54.2625 42.057 47.8446 47.2128C42.3921 51.5931 35.9452 54.2002 29.0576 53.988C22.3841 53.7824 16.3867 50.6472 11.352 46.0885C5.85659 41.1126 0.162862 35.2555 0.00370925 27.6809Z" fill="#54BA4A" fill-opacity="0.08"/>
<g clip-path="url(#clip0_1467_5926)">
<path d="M46.6141 40.497C46.6141 40.497 48.5574 41.0762 49.2241 40.4094C49.8909 39.7427 49.2241 38.0324 49.2241 38.0324L45.7061 37.3369" fill="#F1D0A5"/>
<path d="M31.9096 38.0323C31.9096 38.0323 31.2429 39.7427 31.9096 40.4094C32.5763 41.0761 34.5197 40.497 34.5197 40.497L36.7627 36.843H32.922L31.9096 38.0323Z" fill="#F1B986"/>
<path d="M43.7963 42.8508L43.6411 43.4546L42.9713 46.0697L40.5666 47.039L39.4925 46.6059L38.1619 46.0697L37.492 43.4546L37.3369 42.8508L38.9596 41.9805L40.7134 41.04L43.7963 42.8508Z" fill="#F1D0A5"/>
<path d="M39.4925 46.6059L38.1619 46.0697L37.3369 42.8508L38.9596 41.9805L39.4925 46.6059Z" fill="#F1B986"/>
<path d="M40.5664 41.3604H41.6822V46.3349H40.5664V41.3604Z" fill="#F1B986"/>
<path d="M47.9235 40.7248C47.2529 40.6877 46.6143 40.4972 46.6143 40.4972L45.8125 37.1445L47.4327 38.0322C47.4327 38.8085 47.2982 40.0088 47.9235 40.7248Z" fill="#F1B986"/>
<path d="M53.7528 27.2137C53.7528 27.2137 51.4487 29.7546 45.7005 29.1895H35.434C29.6849 29.7546 27.3809 27.2137 27.3809 27.2137C28.7387 25.8558 28.6975 22.9347 28.6975 17.7499C28.6975 12.5651 30.7549 7 40.5668 7C50.3788 7 52.4362 12.5651 52.4362 17.7499C52.4362 22.9347 52.3949 25.8559 53.7528 27.2137Z" fill="#8B5E5E"/>
<path d="M36.6054 17.6031V29.1895H35.434C29.6849 29.7546 27.3809 27.2137 27.3809 27.2137C28.7387 25.8558 28.6975 22.9347 28.6975 17.7499C28.6975 12.5651 30.7549 7 40.5668 7C36.0222 7 36.6054 13.0123 36.6054 17.6031Z" fill="#7B5454"/>
<path d="M43.7963 42.8508L43.6411 43.4546H37.492L37.3369 42.8508L38.9596 41.9805L40.7134 41.04L43.7963 42.8508Z" fill="#F1B986"/>
<path d="M46.5794 38.0322C46.5794 38.0322 46.7807 40.3231 46.4499 42.8507H34.6845C34.3545 40.3231 34.5558 38.0322 34.5558 38.0322H31.9102C31.9102 30.6357 34.9138 28.1922 35.4343 27.8242H45.7008C46.2213 28.1922 49.2242 30.6357 49.2242 38.0322H46.5794Z" fill="#54BA4A"/>
<path d="M38.5741 29.9848C36.708 33.1674 36.9828 39.4214 37.3375 42.8507H34.6845C34.3545 40.3231 34.5558 38.0322 34.5558 38.0322H31.9102C31.9102 30.6357 34.9138 28.1922 35.4343 27.8242H38.8191C39.0278 28.5255 38.9998 29.2588 38.5741 29.9848Z" fill="#3CA632"/>
<path d="M40.5671 31.1694C42.885 31.1694 44.7641 29.805 44.7641 28.1218C44.7641 26.4387 42.885 25.0742 40.5671 25.0742C38.2492 25.0742 36.3701 26.4387 36.3701 28.1218C36.3701 29.805 38.2492 31.1694 40.5671 31.1694Z" fill="#F1B986"/>
<path d="M49.0557 23.5139C48.9311 25.9632 46.9711 27.9134 44.5202 28.0289C42.5923 28.1196 40.6643 28.1443 38.7357 28.1023C38.7332 28.1023 38.7299 28.1023 38.7274 28.1015C38.0229 28.0867 37.3184 28.0619 36.6139 28.0289C34.1638 27.9134 32.2037 25.9632 32.0784 23.5139C31.9884 21.7683 31.9794 20.0235 32.0487 18.2779H32.0495C32.0495 18.2779 34.0632 18.1757 36.6057 17.6031C38.8652 17.0949 41.5422 16.2147 43.5938 14.7051C43.5938 14.7051 45.7338 18.2779 49.0855 18.2779C49.1556 20.0235 49.1457 21.7683 49.0557 23.5139Z" fill="#F1D0A5"/>
<path d="M38.7274 28.1014C38.0229 28.0866 37.3184 28.0619 36.6139 28.0288C34.1638 27.9133 32.2037 25.9631 32.0784 23.5138C31.9884 21.7682 31.9794 20.0235 32.0487 18.2778H32.0495C32.0495 18.2778 34.0632 18.1756 36.6057 17.603V17.6038C36.0382 22.4711 36.6123 28.014 38.7274 28.1014Z" fill="#F1B986"/>
<path d="M40.5666 24.5185C39.589 24.5185 38.6863 23.9476 38.267 23.0642C38.1204 22.7555 38.2519 22.3865 38.5606 22.2399C38.8694 22.0935 39.2383 22.2249 39.3848 22.5336C39.6004 22.9876 40.0642 23.281 40.5666 23.281C41.069 23.281 41.5329 22.9876 41.7483 22.5336C41.8948 22.2249 42.2638 22.0933 42.5726 22.2398C42.8813 22.3863 43.0128 22.7554 42.8663 23.0641C42.4469 23.9476 41.5443 24.5185 40.5666 24.5185Z" fill="#454045"/>
<path d="M36.6055 18.7417C36.1769 18.7417 35.8281 19.2602 35.8281 19.8975C35.8281 20.5348 36.1769 21.0532 36.6055 21.0532C37.0342 21.0532 37.3829 20.5347 37.3829 19.8975C37.3828 19.2602 37.0342 18.7417 36.6055 18.7417Z" fill="#454045"/>
<path d="M44.5284 18.7417C44.0997 18.7417 43.751 19.2602 43.751 19.8975C43.751 20.5348 44.0997 21.0532 44.5284 21.0532C44.957 21.0532 45.3058 20.5347 45.3058 19.8975C45.3059 19.2602 44.957 18.7417 44.5284 18.7417Z" fill="#454045"/>
<path d="M46.5789 38.0324C46.5789 36.2273 45.9229 34.478 45.9229 34.478C45.9229 34.478 47.4322 36.039 47.4322 38.0321L46.5789 38.0324Z" fill="#3CA632"/>
<path d="M36.0615 48.0001H40.5666V46.0696H37.992C36.9258 46.0696 36.0615 46.9339 36.0615 48.0001Z" fill="#54BA4A"/>
<path d="M39.2228 46.0691C38.1568 46.0691 37.292 46.9338 37.292 47.9999H36.0615C36.0615 46.9339 36.9254 46.0691 37.9915 46.0691H39.2228Z" fill="#3CA632"/>
<path d="M45.0715 48.0001H40.5664V46.0696H43.1411C44.2072 46.0696 45.0715 46.9339 45.0715 48.0001Z" fill="#54BA4A"/>
<path d="M45.8616 23.0716C46.5585 23.0716 47.1235 22.7154 47.1235 22.276C47.1235 21.8367 46.5585 21.4805 45.8616 21.4805C45.1646 21.4805 44.5996 21.8367 44.5996 22.276C44.5996 22.7154 45.1646 23.0716 45.8616 23.0716Z" fill="#EAAC9D"/>
<path d="M35.2717 23.0716C35.9687 23.0716 36.5337 22.7154 36.5337 22.276C36.5337 21.8367 35.9687 21.4805 35.2717 21.4805C34.5748 21.4805 34.0098 21.8367 34.0098 22.276C34.0098 22.7154 34.5748 23.0716 35.2717 23.0716Z" fill="#EAAC9D"/>
<path d="M17.6183 40.497C17.6183 40.497 15.675 41.0762 15.0082 40.4094C14.3415 39.7427 15.0082 38.0324 15.0082 38.0324L18.3097 36.6814L17.6183 40.497Z" fill="#F1B986"/>
<path d="M32.3218 40.4096C32.0372 40.6942 31.5208 40.752 31.0209 40.7247C30.3502 40.6876 29.7117 40.4971 29.7117 40.4971L28.9098 37.1444L28.8604 36.9382L32.3218 38.0321C32.3218 38.0321 32.9884 39.743 32.3218 40.4096Z" fill="#F1D0A5"/>
<path d="M31.0212 40.7248C30.3505 40.6877 29.712 40.4972 29.712 40.4972L28.9102 37.1445L30.8645 38.0322C30.8645 38.8085 30.3958 40.0088 31.0212 40.7248Z" fill="#F1B986"/>
<path d="M29.6766 38.032C29.6766 38.032 30.0868 42.7074 28.7749 46.0692H24.6749C24.6749 46.0692 25.7032 41.3034 23.6655 39.265C21.6271 41.3034 22.6554 46.0692 22.6554 46.0692H18.5554C17.2435 42.7074 17.6537 38.032 17.6537 38.032H15.0078C15.0078 30.6351 18.0113 28.1923 18.5316 27.824H28.7988C29.3191 28.1923 32.3225 30.6351 32.3225 38.032H29.6766Z" fill="#C4EBC0"/>
<path d="M17.7617 36.6813C17.9395 35.0291 18.4293 34.0493 18.4293 34.0493L18.7307 38.0058" fill="#ABDAA6"/>
<path d="M23.0479 33.4883H24.2853V37.9639H23.0479V33.4883Z" fill="#ABDAA6"/>
<path d="M30.8651 38.0317H29.6774C29.6774 36.2275 29.0215 34.4775 29.0215 34.4775C29.0215 34.4775 30.6662 35.0571 30.8651 38.0317Z" fill="#ABDAA6"/>
<path d="M19.9357 27.8237C18.7134 29.4734 16.4867 33.1567 16.5451 38.0318H15.0088C15.0088 30.6349 18.0123 28.192 18.5325 27.8237H19.9357Z" fill="#ABDAA6"/>
<path d="M28.7747 46.0691L28.0292 47.2401L24.6747 46.0691C24.6747 46.0691 25.703 41.3033 23.6654 39.2649C21.6277 41.3033 22.656 46.0691 22.656 46.0691L20.8967 46.5542L18.5552 46.0691C17.2433 42.7073 17.6535 38.0319 17.6535 38.0319C17.6535 37.5691 17.697 37.1089 17.7612 36.6814H29.5695C29.6337 37.1089 29.6772 37.5691 29.6772 38.0319C29.6771 38.0319 30.0865 42.7073 28.7747 46.0691Z" fill="#665E66"/>
<path d="M19.7692 46.0691L18.8725 46.9421L18.5552 46.0691C17.2433 42.7073 17.6535 38.0319 17.6535 38.0319C17.6535 37.5691 17.697 37.1089 17.7612 36.6814H19.7068C19.294 38.2251 18.7836 41.4299 19.7692 46.0691Z" fill="#454045"/>
<path d="M25.7447 46.0691H24.6744C24.6744 46.0691 25.7027 41.3034 23.665 39.2649C25.7447 39.2649 26.814 42.8454 25.7447 46.0691Z" fill="#454045"/>
<path d="M24.9866 30.3162H22.3446L21.877 27.1438H25.4543L24.9866 30.3162Z" fill="#3CA632"/>
<path d="M33.0467 18.4703L20.4107 18.5244L14.136 18.5508C13.6577 14.1834 12.2694 8.51165 17.3702 7.50083C18.5948 7.25795 19.6976 7.11381 20.6888 7.04614C27.3282 6.59554 28.9797 9.59351 28.9797 9.59351C28.9797 9.59351 30.1814 8.538 31.4879 8.64562C31.9601 8.68422 32.4466 8.87569 32.8945 9.32357C35.2571 11.6862 33.0467 18.4703 33.0467 18.4703Z" fill="#E27D47"/>
<path d="M31.4881 8.64564C29.936 9.71196 28.9204 12.9027 28.4502 14.7214C27.9902 12.8689 28.5524 10.8297 28.98 9.59361C28.98 9.59353 30.1816 8.53802 31.4881 8.64564Z" fill="#C57145"/>
<path d="M19.7112 13.8174L20.4107 18.5244L14.136 18.5508C13.6577 14.1834 12.2694 8.51165 17.3702 7.50083C18.5948 7.25795 19.6976 7.11381 20.6888 7.04614C20.6888 7.04678 20.6882 7.04678 20.6882 7.04678C18.134 8.61784 18.923 11.4162 19.7112 13.8174Z" fill="#C57145"/>
<path d="M15.1469 18.2779H22.2044V21.9993H15.1074C14.0795 21.9993 13.2471 21.1653 13.2471 20.1382C13.2471 19.1111 14.0795 18.2771 15.1074 18.2771C15.1206 18.2771 15.1338 18.2771 15.1469 18.2779Z" fill="#F1B986"/>
<path d="M34.0828 20.1382C34.0828 21.1653 33.2504 21.9993 32.2225 21.9993H23.8633V18.2779H32.1829C32.1961 18.2771 32.2093 18.2771 32.2226 18.2771C33.2504 18.2771 34.0828 19.1111 34.0828 20.1382Z" fill="#F1D0A5"/>
<path d="M32.2289 20.5746C32.2289 21.5543 32.2038 22.5347 32.1538 23.5143C32.0286 25.9636 30.0686 27.9135 27.618 28.0292C25.9049 28.1104 24.1912 28.1381 22.478 28.1138H22.4774C21.5552 28.1009 20.6337 28.0725 19.7115 28.0292C17.2616 27.9135 15.3015 25.9636 15.1756 23.5143C15.0863 21.7687 15.0768 20.0238 15.1466 18.2783H15.1472C16.1025 17.9244 16.6709 16.8243 17.0085 15.601C17.3549 14.3459 18.5572 13.6599 19.7114 13.8175C20.1614 13.8791 20.6045 14.0692 20.9861 14.4034C21.7527 15.0746 22.7087 15.4102 23.6647 15.4102C24.6208 15.4102 25.5774 15.0746 26.344 14.4034C26.8189 13.9874 27.388 13.7952 27.9482 13.7952C28.9935 13.7952 30.0077 14.465 30.3216 15.601C30.6586 16.8243 31.2269 17.9244 32.1829 18.2783C32.214 19.0441 32.2289 19.8094 32.2289 20.5746Z" fill="#F1D0A5"/>
<path d="M22.4774 28.1137C21.5552 28.1008 20.6337 28.0725 19.7115 28.0292C17.2616 27.9135 15.3015 25.9636 15.1756 23.5143C15.0863 21.7687 15.0768 20.0238 15.1466 18.2782H15.1472C16.1025 17.9244 16.6709 16.8242 17.0085 15.601C17.3549 14.3459 18.5572 13.6599 19.7114 13.8175C18.8354 21.6409 19.7115 28.0278 22.4774 28.1137Z" fill="#F1B986"/>
<path d="M19.7042 18.3291C19.2755 18.3291 18.9268 18.8476 18.9268 19.4849C18.9268 20.1221 19.2755 20.6406 19.7042 20.6406C20.1328 20.6406 20.4816 20.1221 20.4816 19.4849C20.4816 18.8476 20.1328 18.3291 19.7042 18.3291Z" fill="#454045"/>
<path d="M27.626 18.3291C27.1974 18.3291 26.8486 18.8476 26.8486 19.4849C26.8486 20.1221 27.1974 20.6406 27.626 20.6406C28.0547 20.6406 28.4034 20.1221 28.4034 19.4849C28.4034 18.8476 28.0547 18.3291 27.626 18.3291Z" fill="#454045"/>
<path d="M22.3446 30.3162H24.9866L25.4543 33.4885L23.6657 34.771L21.877 33.4885L22.3446 30.3162Z" fill="#54BA4A"/>
<path d="M17.3252 48.0001H22.6553V46.0696H19.2557C18.1895 46.0696 17.3252 46.9339 17.3252 48.0001Z" fill="#AA593D"/>
<path d="M20.4864 46.0691C19.4204 46.0691 18.5556 46.9338 18.5556 47.9999H17.3252C17.3252 46.9339 18.1891 46.0691 19.2552 46.0691H20.4864Z" fill="#934D36"/>
<path d="M30.0049 48.0001H24.6748V46.0696H28.0744C29.1406 46.0696 30.0049 46.9339 30.0049 48.0001Z" fill="#AA593D"/>
<path d="M19.4951 25.0469H21.5659C22.7251 25.0469 23.6649 24.1071 23.6649 22.9478V22.1389H21.5942C20.4349 22.1389 19.4951 23.0787 19.4951 24.238V25.0469Z" fill="#7B5454"/>
<path d="M27.8349 25.0469H25.7641C24.6048 25.0469 23.665 24.1071 23.665 22.9478V22.1389H25.7358C26.8951 22.1389 27.8349 23.0787 27.8349 24.238V25.0469Z" fill="#7B5454"/>
</g>
<defs>
<clipPath id="clip0_1467_5926">
<rect width="41" height="41" fill="white" transform="translate(13 7)"/>
</clipPath>
</defs>
</svg>
