<svg width="60" height="51" viewBox="0 0 60 51" fill="none" xmlns="http://www.w3.org/2000/svg">
<path fill-rule="evenodd" clip-rule="evenodd" d="M24.7512 0.719141C32.9993 -0.303174 41.9159 -0.994133 48.4885 4.16781C55.6993 9.83105 61.0323 19.0942 59.8304 28.2696C58.6965 36.9264 50.1857 42.0468 42.9156 46.713C37.467 50.2101 31.1507 51.5691 24.7512 50.7847C19.1417 50.097 14.6946 46.5835 10.5002 42.7395C5.97471 38.592 0.979905 34.4067 0.184146 28.2696C-0.698591 21.4618 1.63983 14.5021 6.1788 9.41195C10.9352 4.07796 17.7168 1.59103 24.7512 0.719141Z" fill="#FFB82A" fill-opacity="0.1"/>
<path d="M48.1991 25.1723C47.8334 25.1723 47.5371 24.876 47.5371 24.5104V21.8028C47.5371 21.4372 47.8334 21.1409 48.1991 21.1409C48.5647 21.1409 48.861 21.4372 48.861 21.8028V24.5104C48.861 24.876 48.5647 25.1723 48.1991 25.1723Z" fill="#DDAEAE"/>
<path d="M31.1585 33.9473C33.4388 28.533 34.9077 16.1749 34.9077 12.3075C34.9077 5.68401 30.5995 3.30225 25.2849 3.30225C19.9703 3.30225 15.6621 5.6841 15.6621 12.3075C15.6621 16.1748 17.131 28.533 19.4113 33.9473H31.1585Z" fill="#8B5E5E"/>
<path d="M25.2844 3.30225C24.8819 3.30225 24.4852 3.31611 24.0957 3.34429C28.7191 3.68761 32.2989 6.18568 32.2989 12.3075C32.2989 16.1748 30.8703 28.533 28.6524 33.9473H31.158C33.4382 28.5331 34.9072 16.1749 34.9072 12.3075C34.9071 5.68401 30.5989 3.30225 25.2844 3.30225Z" fill="#9D6B6B"/>
<path d="M22.6729 17.9961H27.8973V27.0349H22.6729V17.9961Z" fill="#FFCDBE"/>
<path d="M27.8963 17.9961H22.6719V24.178C23.3692 24.5078 24.1482 24.693 24.9707 24.693H25.5968C26.4196 24.693 27.1988 24.5078 27.8963 24.178V17.9961Z" fill="#EBAE9D"/>
<path d="M34.1176 15.5381C34.1176 16.549 33.2976 17.3689 32.2868 17.3689H29.0488V13.7073H32.2868C33.2976 13.7073 34.1176 14.5262 34.1176 15.5381Z" fill="#FFCDBE"/>
<path d="M30.9824 12.4818V17.4172C30.9824 20.3914 28.5719 22.8018 25.5976 22.8018H24.9716C21.9984 22.8018 19.5879 20.3913 19.5879 17.4181V16.7505C23.0784 15.2403 26.114 12.6822 28.186 9.49341C29.7473 9.59558 30.9824 10.8949 30.9824 12.4818Z" fill="#FFCDBE"/>
<path d="M25.3956 20.6801H25.1732C24.5023 20.6801 23.8647 20.4206 23.3777 19.9493C23.1044 19.6849 23.0973 19.249 23.3617 18.9758C23.6262 18.7026 24.0619 18.6955 24.3352 18.9599C24.564 19.1813 24.8616 19.3032 25.1731 19.3032H25.3955C25.7072 19.3032 26.0048 19.1813 26.2335 18.96C26.5068 18.6954 26.9426 18.7026 27.207 18.9758C27.4714 19.249 27.4643 19.685 27.1911 19.9492C26.7043 20.4206 26.0666 20.6801 25.3956 20.6801Z" fill="#E09380"/>
<path d="M37.5697 29.9172V42.272C37.5697 42.5254 37.3642 42.731 37.1107 42.731H17.3571V36.0519H13V29.9172C13 27.9888 14.5633 26.4255 16.4917 26.4255H19.863L22.6302 27.8943L25.4652 26.4255L28.3002 27.4353L30.9724 26.4255H34.0778C36.0064 26.4255 37.5697 27.9888 37.5697 29.9172Z" fill="#FFDC97"/>
<path d="M34.0936 26.4255C33.6088 26.4233 33.2119 26.8101 33.2119 27.2949V42.731H37.1103C37.3637 42.731 37.5692 42.5254 37.5692 42.272V29.9171C37.5693 27.9941 36.0147 26.4342 34.0936 26.4255Z" fill="#FFB82A"/>
<path d="M37.6172 6.25977V21.7084C37.6172 21.9695 37.8289 22.1812 38.09 22.1812H58.1091C58.3703 22.1812 58.5819 21.9695 58.5819 21.7084V6.25977H37.6172Z" fill="#FFE8B9"/>
<path d="M58.1091 19.8159H38.09C37.8289 19.8159 37.6172 19.6042 37.6172 19.343V21.7083C37.6172 21.9694 37.8289 22.1811 38.09 22.1811H58.1091C58.3703 22.1811 58.5819 21.9694 58.5819 21.7083V19.343C58.5818 19.6042 58.3702 19.8159 58.1091 19.8159Z" fill="#8B5E5E"/>
<path d="M36.1992 5.78695V4.27827C36.1992 4.0171 36.4109 3.80542 36.6721 3.80542H59.5274C59.7885 3.80542 60.0002 4.0171 60.0002 4.27827V5.78695C60.0002 6.04811 59.7885 6.25979 59.5274 6.25979H36.6721C36.411 6.25979 36.1992 6.04811 36.1992 5.78695Z" fill="#9D6B6B"/>
<path d="M26.8706 32.9309L17.3572 38.4233V27.2912C17.3572 26.8131 16.9697 26.4255 16.4916 26.4255C14.5648 26.4255 13.0017 27.9876 13 29.9141V40.881C13 42.4367 14.2612 43.6979 15.8169 43.6979H16.1812C16.6757 43.6979 17.1614 43.5677 17.5897 43.3205L29.0492 36.7043L26.8706 32.9309Z" fill="#FFB82A"/>
<path d="M28.2177 35.8708L16.7581 42.4868C16.3299 42.7341 15.8441 42.8642 15.3497 42.8642H14.9853C14.4197 42.8642 13.8934 42.6969 13.4521 42.4099C13.954 43.1847 14.8255 43.6978 15.8174 43.6978H16.1817C16.6762 43.6978 17.1619 43.5677 17.5902 43.3204L29.0497 36.7043L28.4808 35.7188L28.2177 35.8708Z" fill="#FFB82A"/>
<path d="M31.6687 33.6932C31.5202 33.6932 31.3704 33.6467 31.2425 33.5504C30.9297 33.3148 30.8671 32.8701 31.1027 32.5572L41.47 18.7938C41.7056 18.481 42.1502 18.4183 42.4632 18.6541C42.7761 18.8897 42.8387 19.3344 42.603 19.6473L32.2358 33.4107C32.0964 33.5958 31.8839 33.6932 31.6687 33.6932Z" fill="#7366FF"/>
<path d="M26.8711 32.9308L30.0491 31.096C31.0911 30.4943 32.4235 30.8514 33.0252 31.8934C33.6268 32.9354 33.2698 34.2679 32.2277 34.8695L29.0497 36.7043L26.8711 32.9308Z" fill="#FFCDBE"/>
<path d="M33.025 31.8934C32.8221 31.542 32.5359 31.2688 32.2059 31.0837C32.7885 32.1221 32.4296 33.4389 31.3954 34.0359L28.4805 35.7188L29.0494 36.7044L32.2274 34.8695C33.2696 34.2679 33.6266 32.9355 33.025 31.8934Z" fill="#EBAE9D"/>
<path d="M48.1989 28.2519C46.9718 28.2519 45.9736 27.2537 45.9736 26.0266C45.9736 24.7996 46.9719 23.8013 48.1989 23.8013C49.4258 23.8013 50.4241 24.7996 50.4241 26.0266C50.4241 27.2536 49.4258 28.2519 48.1989 28.2519ZM48.1989 25.2196C47.754 25.2196 47.3921 25.5816 47.3921 26.0265C47.3921 26.4714 47.754 26.8333 48.1989 26.8333C48.6437 26.8333 49.0057 26.4714 49.0057 26.0265C49.0056 25.5816 48.6437 25.2196 48.1989 25.2196Z" fill="#8B5E5E"/>
<path d="M25.3799 26.4255C26.473 30.6333 29.0698 29.8168 30.982 26.4255H25.3799Z" fill="#FCFCFD"/>
<path d="M25.4732 26.4255C24.3801 30.6333 21.7832 29.8168 19.8711 26.4255H25.4732Z" fill="#FCFCFD"/>
</svg>
