<svg width="25" height="25" viewBox="0 0 25 25" fill="none" xmlns="http://www.w3.org/2000/svg">
<path d="M25 12.5C25 19.4025 19.4025 25 12.5 25C5.5975 25 0 19.4025 0 12.5C0 5.5975 5.5975 0 12.5 0C19.4025 0 25 5.5975 25 12.5Z" fill="#4CAF50"/>
<path d="M12.5005 0V12.5L17.5005 15L11.9736 25C12.1718 25 12.3024 25 12.5005 25C19.4086 25 25.0005 19.4081 25.0005 12.5C25.0005 5.59187 19.4086 0 12.5005 0Z" fill="#FFC107"/>
<path d="M25 12.5C25 19.4025 19.4025 25 12.5 25C5.5975 25 0 19.4025 0 12.5C0 5.5975 5.5975 0 12.5 0C19.4025 0 25 5.5975 25 12.5Z" fill="#4CAF50"/>
<path d="M12.5005 0V12.5L17.5005 15L11.9736 25C12.1718 25 12.3024 25 12.5005 25C19.4086 25 25.0005 19.4081 25.0005 12.5C25.0005 5.59187 19.4086 0 12.5005 0Z" fill="#FFC107"/>
<path d="M23.6494 6.875H12.4994V15L10.6244 14.375L1.97441 5.7875H1.96191C4.17441 2.30625 8.06816 0 12.4994 0C17.3744 0 21.5932 2.8 23.6494 6.875Z" fill="#F44336"/>
<path d="M1.97363 5.79004L7.50051 15.0788L10.6249 14.375L1.97363 5.79004Z" fill="#DD2C00"/>
<path d="M11.9736 25L17.5574 14.9631L15.0005 13.125L11.9736 25Z" fill="#558B2F"/>
<path d="M23.6657 6.875H12.5001L11.5132 9.7375L23.6657 6.875Z" fill="#F9A825"/>
<path d="M18.125 12.5C18.125 15.6056 15.6056 18.125 12.5 18.125C9.39438 18.125 6.875 15.6056 6.875 12.5C6.875 9.39438 9.39438 6.875 12.5 6.875C15.6056 6.875 18.125 9.39438 18.125 12.5Z" fill="white"/>
<path d="M16.875 12.5C16.875 14.9169 14.9169 16.875 12.5 16.875C10.0831 16.875 8.125 14.9169 8.125 12.5C8.125 10.0831 10.0831 8.125 12.5 8.125C14.9169 8.125 16.875 10.0831 16.875 12.5Z" fill="#2196F3"/>
</svg>
