<svg width="25" height="25" viewBox="0 0 25 25" fill="none" xmlns="http://www.w3.org/2000/svg">
<path d="M22.5678 18.6115C22.2326 18.7858 21.8869 18.9391 21.5327 19.0706C20.4112 19.4883 19.2236 19.7001 18.027 19.6959C13.408 19.6959 9.38466 16.5207 9.38466 12.4369C9.39065 11.8901 9.54221 11.3547 9.82367 10.886C10.1052 10.4172 10.5064 10.0319 10.9862 9.76978C6.80659 9.94564 5.73242 14.303 5.73242 16.8529C5.73242 24.0826 12.3826 24.8055 13.8181 24.8055C14.5896 24.8055 15.7516 24.5808 16.4548 24.3561L16.5817 24.3171C19.2724 23.3867 21.5663 21.5673 23.0854 19.1586C23.1296 19.0854 23.1485 18.9997 23.1394 18.9147C23.1302 18.8297 23.0934 18.7501 23.0347 18.688C22.976 18.6259 22.8985 18.5848 22.8141 18.571C22.7298 18.5572 22.6433 18.5714 22.5678 18.6115Z" fill="url(#paint0_linear_1077_1736)"/>
<path opacity="0.35" d="M22.5678 18.6115C22.2326 18.7858 21.8869 18.9391 21.5327 19.0706C20.4112 19.4883 19.2236 19.7001 18.027 19.6959C13.408 19.6959 9.38466 16.5207 9.38466 12.4369C9.39065 11.8901 9.54221 11.3547 9.82367 10.886C10.1052 10.4172 10.5064 10.0319 10.9862 9.76978C6.80659 9.94564 5.73242 14.303 5.73242 16.8529C5.73242 24.0826 12.3826 24.8055 13.8181 24.8055C14.5896 24.8055 15.7516 24.5808 16.4548 24.3561L16.5817 24.3171C19.2724 23.3867 21.5663 21.5673 23.0854 19.1586C23.1296 19.0854 23.1485 18.9997 23.1394 18.9147C23.1302 18.8297 23.0934 18.7501 23.0347 18.688C22.976 18.6259 22.8985 18.5848 22.8141 18.571C22.7298 18.5572 22.6433 18.5714 22.5678 18.6115Z" fill="url(#paint1_radial_1077_1736)"/>
<path d="M10.3215 23.5745C9.45225 23.0344 8.69882 22.3271 8.10475 21.4935C7.42642 20.5646 6.95944 19.4984 6.73668 18.3698C6.51392 17.2411 6.54074 16.0774 6.81528 14.9603C7.08975 13.8431 7.60533 12.7995 8.32574 11.9029C9.04616 11.0062 9.95397 10.2781 10.9855 9.76974C11.298 9.62321 11.8156 9.36919 12.5089 9.37898C12.9968 9.38274 13.4772 9.49935 13.9126 9.71966C14.3479 9.94002 14.7265 10.2581 15.0186 10.649C15.4115 11.1777 15.6269 11.8172 15.6338 12.476C15.6338 12.4564 18.0263 4.69922 7.82158 4.69922C3.53459 4.69922 0.00930767 8.76349 0.00930767 12.3392C-0.00774405 14.2281 0.395895 16.097 1.19091 17.8103C2.49289 20.584 4.7675 22.7829 7.58293 23.9895C10.3983 25.1962 13.5587 25.3266 16.4639 24.3561C15.4461 24.6777 14.3705 24.7744 13.3117 24.6395C12.2529 24.5045 11.236 24.1412 10.3313 23.5745H10.3215Z" fill="url(#paint2_linear_1077_1736)"/>
<path opacity="0.41" d="M10.3215 23.5745C9.45225 23.0344 8.69882 22.3271 8.10475 21.4935C7.42642 20.5646 6.95944 19.4984 6.73668 18.3698C6.51392 17.2411 6.54074 16.0774 6.81528 14.9603C7.08975 13.8431 7.60533 12.7995 8.32574 11.9029C9.04616 11.0062 9.95397 10.2781 10.9855 9.76974C11.298 9.62321 11.8156 9.36919 12.5089 9.37898C12.9968 9.38274 13.4772 9.49935 13.9126 9.71966C14.3479 9.94002 14.7265 10.2581 15.0186 10.649C15.4115 11.1777 15.6269 11.8172 15.6338 12.476C15.6338 12.4564 18.0263 4.69922 7.82158 4.69922C3.53459 4.69922 0.00930767 8.76349 0.00930767 12.3392C-0.00774405 14.2281 0.395895 16.097 1.19091 17.8103C2.49289 20.584 4.7675 22.7829 7.58293 23.9895C10.3983 25.1962 13.5587 25.3266 16.4639 24.3561C15.4461 24.6777 14.3705 24.7744 13.3117 24.6395C12.2529 24.5045 11.236 24.1412 10.3313 23.5745H10.3215Z" fill="url(#paint3_radial_1077_1736)"/>
<path d="M14.8823 14.5375C14.7945 14.6352 14.5503 14.7818 14.5503 15.0846C14.5503 15.3386 14.7164 15.5927 15.0191 15.7978C16.4155 16.7748 19.0619 16.638 19.0717 16.638C20.1127 16.6373 21.1345 16.3573 22.0306 15.8271C22.9327 15.2992 23.6813 14.5446 24.202 13.638C24.7227 12.7314 24.9976 11.7045 24.9992 10.6589C25.0285 8.47041 24.218 7.01474 23.8957 6.36991C21.8157 2.32522 17.353 6.12219e-08 12.4996 6.12219e-08C9.21474 -0.000324902 6.06177 1.29303 3.72262 3.60035C1.38348 5.90767 0.0461935 9.04344 0 12.3295C0.0488266 8.76352 3.59364 5.88141 7.81224 5.88141C8.15406 5.88141 10.1071 5.91074 11.9137 6.85842C13.1829 7.48939 14.234 8.48652 14.9312 9.72099C15.5269 10.7566 15.6343 12.0755 15.6343 12.6031C15.6343 13.1306 15.3706 13.9024 14.8726 14.5473L14.8823 14.5375Z" fill="url(#paint4_radial_1077_1736)"/>
<path d="M14.8823 14.5375C14.7945 14.6352 14.5503 14.7818 14.5503 15.0846C14.5503 15.3386 14.7164 15.5927 15.0191 15.7978C16.4155 16.7748 19.0619 16.638 19.0717 16.638C20.1127 16.6373 21.1345 16.3573 22.0306 15.8271C22.9327 15.2992 23.6813 14.5446 24.202 13.638C24.7227 12.7314 24.9976 11.7045 24.9992 10.6589C25.0285 8.47041 24.218 7.01474 23.8957 6.36991C21.8157 2.32522 17.353 6.12219e-08 12.4996 6.12219e-08C9.21474 -0.000324902 6.06177 1.29303 3.72262 3.60035C1.38348 5.90767 0.0461935 9.04344 0 12.3295C0.0488266 8.76352 3.59364 5.88141 7.81224 5.88141C8.15406 5.88141 10.1071 5.91074 11.9137 6.85842C13.1829 7.48939 14.234 8.48652 14.9312 9.72099C15.5269 10.7566 15.6343 12.0755 15.6343 12.6031C15.6343 13.1306 15.3706 13.9024 14.8726 14.5473L14.8823 14.5375Z" fill="url(#paint5_radial_1077_1736)"/>
<defs>
<linearGradient id="paint0_linear_1077_1736" x1="5.73247" y1="17.2923" x2="23.1538" y2="17.2923" gradientUnits="userSpaceOnUse">
<stop stop-color="#0C59A4"/>
<stop offset="1" stop-color="#114A8B"/>
</linearGradient>
<radialGradient id="paint1_radial_1077_1736" cx="0" cy="0" r="1" gradientUnits="userSpaceOnUse" gradientTransform="translate(15.3512 17.4241) scale(9.3161 8.85439)">
<stop offset="0.7" stop-opacity="0"/>
<stop offset="0.9" stop-opacity="0.5"/>
<stop offset="1"/>
</radialGradient>
<linearGradient id="paint2_linear_1077_1736" x1="14.911" y1="9.73045" x2="4.03682" y2="21.5762" gradientUnits="userSpaceOnUse">
<stop stop-color="#1B9DE2"/>
<stop offset="0.2" stop-color="#1595DF"/>
<stop offset="0.7" stop-color="#0680D7"/>
<stop offset="1" stop-color="#0078D4"/>
</linearGradient>
<radialGradient id="paint3_radial_1077_1736" cx="0" cy="0" r="1" gradientUnits="userSpaceOnUse" gradientTransform="translate(6.88965 19.436) rotate(-81.3879) scale(14.0084 11.3124)">
<stop offset="0.8" stop-opacity="0"/>
<stop offset="0.9" stop-opacity="0.5"/>
<stop offset="1"/>
</radialGradient>
<radialGradient id="paint4_radial_1077_1736" cx="0" cy="0" r="1" gradientUnits="userSpaceOnUse" gradientTransform="translate(2.52813 4.62244) rotate(92.2896) scale(19.7899 42.1291)">
<stop stop-color="#35C1F1"/>
<stop offset="0.1" stop-color="#34C1ED"/>
<stop offset="0.2" stop-color="#2FC2DF"/>
<stop offset="0.3" stop-color="#2BC3D2"/>
<stop offset="0.7" stop-color="#36C752"/>
</radialGradient>
<radialGradient id="paint5_radial_1077_1736" cx="0" cy="0" r="1" gradientUnits="userSpaceOnUse" gradientTransform="translate(23.4427 7.55191) rotate(73.7471) scale(9.5057 7.72705)">
<stop stop-color="#66EB6E"/>
<stop offset="1" stop-color="#66EB6E" stop-opacity="0"/>
</radialGradient>
</defs>
</svg>
