<svg width="26" height="26" viewBox="0 0 26 26" fill="none" xmlns="http://www.w3.org/2000/svg">
<path d="M12.9997 0.000577927C5.82018 0.000577927 0 5.82076 0 13.0003C0 19.972 5.48861 25.6619 12.3806 25.9848C12.5862 25.9945 12.7922 26 12.9999 26C16.3282 26 19.3635 24.7485 21.6634 22.6917C20.1396 23.7023 18.358 24.2838 16.4541 24.2838C13.3583 24.2838 10.5858 22.748 8.72106 20.3262C7.2836 18.6294 6.35258 16.1211 6.28916 13.3063V12.6941C6.35254 9.87927 7.28355 7.37055 8.72069 5.67417C10.5857 3.25231 13.3581 1.71652 16.4537 1.71652C18.3581 1.71652 20.14 2.29799 21.664 3.30922C19.3753 1.26186 16.3583 0.0129337 13.0486 0.000642776C13.0321 0.000642776 13.0159 0 12.9994 0L12.9997 0.000577927Z" fill="url(#paint0_linear_1969_1881)"/>
<path d="M8.7207 5.67484C9.91368 4.26651 11.4543 3.41726 13.1375 3.41726C16.9222 3.41726 19.9896 7.70799 19.9896 13.0008C19.9896 18.2936 16.9219 22.5843 13.1375 22.5843C11.4543 22.5843 9.91368 21.7354 8.72102 20.327C10.5857 22.7489 13.358 24.2847 16.4541 24.2847C18.3581 24.2847 20.1397 23.7032 21.6634 22.6926C24.3242 20.3122 25.9997 16.8523 25.9997 13.0009C25.9997 9.14994 24.3245 5.69021 21.6643 3.31004C20.1402 2.29881 18.3583 1.71734 16.4541 1.71734C13.3583 1.71734 10.5854 3.25299 8.7207 5.67484Z" fill="url(#paint1_linear_1969_1881)"/>
<defs>
<linearGradient id="paint0_linear_1969_1881" x1="10.8323" y1="0.424332" x2="10.8323" y2="25.622" gradientUnits="userSpaceOnUse">
<stop stop-color="#FF1B2D"/>
<stop offset="0.3" stop-color="#FF1B2D"/>
<stop offset="0.614" stop-color="#FF1B2D"/>
<stop offset="1" stop-color="#A70014"/>
</linearGradient>
<linearGradient id="paint1_linear_1969_1881" x1="17.3599" y1="1.90968" x2="17.3599" y2="24.1957" gradientUnits="userSpaceOnUse">
<stop stop-color="#9C0000"/>
<stop offset="0.7" stop-color="#FF4B4B"/>
<stop offset="1" stop-color="#FF4B4B"/>
</linearGradient>
</defs>
</svg>
