<svg width="25" height="25" viewBox="0 0 25 25" fill="none" xmlns="http://www.w3.org/2000/svg">
<path d="M25 12.5C25 19.4025 19.4025 25 12.5 25C5.5975 25 0 19.4025 0 12.5C0 5.5975 5.5975 0 12.5 0C19.4025 0 25 5.5975 25 12.5Z" fill="#CFD8DC"/>
<path d="M23.125 12.5C23.125 18.3694 18.3694 23.125 12.5 23.125C6.63063 23.125 1.875 18.3694 1.875 12.5C1.875 6.63063 6.63063 1.875 12.5 1.875C18.3694 1.875 23.125 6.63063 23.125 12.5Z" fill="#448AFF"/>
<path d="M11.1865 11.1861L13.8134 13.813L19.5628 5.43677L11.1865 11.1861Z" fill="#FF3D00"/>
<path d="M12.5 12.4999L19.5631 5.43677L13.8137 13.813L12.5 12.4999Z" fill="#BF360C"/>
<path d="M11.1864 11.186L5.43701 19.5623L13.8133 13.8129L11.1864 11.186Z" fill="white"/>
<path d="M12.5001 12.5L5.43701 19.5631L13.8133 13.8137L12.5001 12.5Z" fill="#BDBDBD"/>
<path d="M8.18924 4.18663C8.56299 3.99851 8.93861 3.81288 9.31236 3.68601L10.0642 5.37538L8.93861 5.87351L8.18924 4.18663ZM20.0005 13.1248H21.8117C21.8117 12.9366 21.8755 12.6879 21.8755 12.4998C21.8755 12.3116 21.8755 12.0629 21.8117 11.8748H20.0005V13.1248ZM5.43736 6.31351L6.75111 7.62476L7.62486 6.75101L6.31361 5.43726C6.00174 5.74913 5.74986 6.00101 5.43736 6.31351ZM13.1255 3.18851C12.9374 3.12476 12.6886 3.12476 12.5005 3.12476C12.3124 3.12476 12.0636 3.12476 11.8755 3.18851V4.99976H13.1255V3.18851ZM16.4992 4.06226C16.1255 3.87413 15.7499 3.74976 15.313 3.62538L14.6242 5.37601L15.813 5.81288L16.4992 4.06226ZM5.31299 10.3123L5.74986 9.12601L4.06299 8.43726C3.87486 8.81351 3.75049 9.18663 3.62611 9.62351L5.31299 10.3123ZM5.00049 11.8748H3.18924C3.12549 12.0629 3.12549 12.3116 3.12549 12.4998C3.12549 12.6879 3.12549 12.9366 3.18924 13.1248H5.00049V11.8748ZM19.688 14.6873L19.2511 15.8735L20.938 16.5623C21.1261 16.186 21.2505 15.8129 21.3749 15.376L19.688 14.6873ZM21.3142 9.31101C21.1874 8.93726 21.0017 8.56163 20.8136 8.18788L19.1267 8.93726L19.6249 10.0629L21.3142 9.31101ZM19.5636 18.686L18.2499 17.3748L17.3761 18.2485L18.6874 19.5623C18.9992 19.2504 19.2511 18.9985 19.5636 18.686ZM5.87424 16.0616L5.37611 14.936L3.68674 15.6879C3.81361 16.0616 3.99924 16.4373 4.18736 16.811L5.87424 16.0616ZM16.0624 19.126L14.9367 19.6241L15.6886 21.3135C16.0624 21.1866 16.438 21.001 16.8117 20.8129L16.0624 19.126ZM10.313 19.6873L9.12674 19.2504L8.43799 20.9373C8.81424 21.1254 9.18736 21.2498 9.62424 21.3741L10.313 19.6873ZM13.1255 21.811V19.9998H11.8755V21.811C12.0636 21.811 12.3124 21.8748 12.5005 21.8748C12.6886 21.8748 12.9374 21.8748 13.1255 21.811Z" fill="#BBDEFB"/>
</svg>
