<svg width="204" height="153" viewBox="0 0 204 153" fill="none" xmlns="http://www.w3.org/2000/svg">
<path d="M168.16 118.82H58.7174C56.8931 118.82 55.4138 117.341 55.4138 115.517V41.1762C55.4138 39.3513 56.8931 37.8721 58.7174 37.8721H168.16C169.984 37.8721 171.464 39.3513 171.464 41.1762V115.517C171.463 117.342 169.984 118.82 168.16 118.82Z" fill="#EADAFE"/>
<path d="M72.9534 47.145V107.251" stroke="#D2BFEF" stroke-width="0.722744" stroke-miterlimit="10"/>
<path d="M86.3452 47.145V107.251" stroke="#D2BFEF" stroke-width="0.722744" stroke-miterlimit="10"/>
<path d="M99.7363 47.145V107.251" stroke="#D2BFEF" stroke-width="0.722744" stroke-miterlimit="10"/>
<path d="M113.127 47.145V107.251" stroke="#D2BFEF" stroke-width="0.722744" stroke-miterlimit="10"/>
<path d="M127.14 47.145V107.251" stroke="#D2BFEF" stroke-width="0.722744" stroke-miterlimit="10"/>
<path d="M140.531 47.145V107.251" stroke="#D2BFEF" stroke-width="0.722744" stroke-miterlimit="10"/>
<path d="M153.923 47.145V107.251" stroke="#D2BFEF" stroke-width="0.722744" stroke-miterlimit="10"/>
<path d="M142.017 85.2541C139.63 79.3932 136.713 72.975 130.88 70.52C125.986 68.461 119.798 70.1131 116.582 74.3375C115.077 76.3145 114.222 78.6932 113.223 80.9684C112.2 83.2991 111.005 85.5553 109.653 87.712C108.225 89.9878 106.254 92.4625 103.568 92.492C100.489 92.5255 95.7689 88.5334 94.5174 87.8011C86.6391 83.187 83.7592 89.5283 83.2314 90.7561C82.0932 93.4042 80.7521 96.0355 78.6862 98.0454C76.6202 100.055 73.7056 101.374 70.8593 100.917C67.8343 100.43 65.4405 98.0876 63.696 95.569C61.9514 93.0504 60.7502 90.1029 58.5582 87.9623C53.0343 82.5673 49.4769 87.1224 48.5167 88.4629C41.7541 97.902 41.3864 110.975 33.9844 119.922H156.365C156.365 119.922 145.581 94.0071 142.017 85.2541Z" fill="url(#paint0_linear_1789_1586)"/>
<path d="M142.017 85.2541C139.63 79.3932 136.713 72.975 130.88 70.52C125.986 68.461 119.798 70.1131 116.582 74.3375C115.077 76.3145 114.222 78.6932 113.223 80.9684C112.2 83.2991 111.005 85.5553 109.653 87.712C108.225 89.9878 106.254 92.4625 103.568 92.492C100.489 92.5255 95.7689 88.5334 94.5174 87.8011C86.6391 83.187 83.7592 89.5283 83.2314 90.7561C82.0932 93.4042 80.7521 96.0355 78.6862 98.0454C76.6202 100.055 73.7056 101.374 70.8593 100.917C67.8343 100.43 65.4405 98.0876 63.696 95.569C61.9514 93.0504 60.7502 90.1029 58.5582 87.9623C53.0343 82.5673 49.4769 87.1224 48.5167 88.4629C41.7541 97.902 41.3864 110.975 33.9844 119.922H156.365C156.365 119.922 145.581 94.0071 142.017 85.2541Z" stroke="url(#paint1_linear_1789_1586)" stroke-width="0.722744" stroke-miterlimit="10"/>
<path d="M174.941 124.632C172.708 120.865 170.475 117.099 168.242 113.332C166.491 110.379 164.671 107.347 161.93 105.28C159.189 103.213 155.267 102.323 152.291 104.035C149.973 105.369 148.822 108.035 146.969 109.962C138.281 119.004 131.302 102.569 120.758 105.611C115.457 107.141 114.723 117.143 110.281 118.611C107.216 119.625 104.07 117.445 101.724 115.229C99.3933 113.027 97.2255 110.651 95.2451 108.129C92.8548 105.084 90.7178 101.804 87.8818 99.169C85.0464 96.5336 81.3134 94.559 77.4537 94.8648C70.3557 95.4266 66.007 103.656 61.723 109.344C58.961 113.011 55.895 116.949 51.4503 118.1C48.9092 118.758 46.2339 118.404 43.6101 118.325C39.64 118.204 35.5942 118.745 31.9831 120.399C28.3714 122.053 25.2215 124.893 23.6521 128.542H177.021L174.941 124.632Z" fill="#FAAE17"/>
<path d="M55.5187 42.2858V19.5225C42.9465 19.5225 32.7554 29.7136 32.7554 42.2858C32.7554 54.858 42.9465 65.0491 55.5187 65.0491C68.0903 65.0491 78.282 54.858 78.282 42.2858H55.5187Z" fill="url(#paint2_linear_1789_1586)"/>
<path d="M55.5187 42.2858V19.5225C42.9465 19.5225 32.7554 29.7136 32.7554 42.2858C32.7554 54.858 42.9465 65.0491 55.5187 65.0491C68.0903 65.0491 78.282 54.858 78.282 42.2858H55.5187Z" stroke="url(#paint3_linear_1789_1586)" stroke-width="0.722744" stroke-miterlimit="10"/>
<path d="M58.7969 16.2451V39.0085H81.5602C81.5602 26.4363 71.3685 16.2451 58.7969 16.2451Z" fill="url(#paint4_linear_1789_1586)"/>
<path d="M58.7969 16.2451V39.0085H81.5602C81.5602 26.4363 71.3685 16.2451 58.7969 16.2451Z" stroke="url(#paint5_linear_1789_1586)" stroke-width="0.722744" stroke-miterlimit="10"/>
<path d="M182.498 99.8006L176.97 84.8642H192.894C192.894 76.0696 185.765 68.9404 176.97 68.9404C168.176 68.9404 161.046 76.0696 161.046 84.8642C161.046 93.6587 168.176 100.788 176.97 100.788C179.308 100.788 180.425 100.441 182.498 99.8006Z" fill="url(#paint6_linear_1789_1586)"/>
<path d="M182.498 99.8006L176.97 84.8642H192.894C192.894 76.0696 185.765 68.9404 176.97 68.9404C168.176 68.9404 161.046 76.0696 161.046 84.8642C161.046 93.6587 168.176 100.788 176.97 100.788C179.308 100.788 180.425 100.441 182.498 99.8006Z" stroke="url(#paint7_linear_1789_1586)" stroke-width="0.722744" stroke-miterlimit="10"/>
<path d="M196.771 87.5312H180.847L186.375 102.468C192.444 100.22 196.771 94.3818 196.771 87.5312Z" fill="url(#paint8_linear_1789_1586)"/>
<path d="M196.771 87.5312H180.847L186.375 102.468C192.444 100.22 196.771 94.3818 196.771 87.5312Z" stroke="url(#paint9_linear_1789_1586)" stroke-width="0.722744" stroke-miterlimit="10"/>
<path d="M185.268 59.4532H129.999C128.175 59.4532 126.695 57.974 126.695 56.1491V19.5962C126.695 17.7712 128.175 16.292 129.999 16.292H185.268C187.092 16.292 188.572 17.7712 188.572 19.5962V56.1491C188.572 57.974 187.093 59.4532 185.268 59.4532Z" fill="url(#paint10_linear_1789_1586)"/>
<path d="M169.34 28.5997H136.774C135.311 28.5997 134.125 27.4136 134.125 25.9505C134.125 24.4874 135.311 23.3013 136.774 23.3013H169.34C170.803 23.3013 171.989 24.4874 171.989 25.9505C171.989 27.4136 170.803 28.5997 169.34 28.5997Z" fill="#EADAFE"/>
<g opacity="0.3">
<path d="M169.34 28.5997H136.774C135.311 28.5997 134.125 27.4136 134.125 25.9505C134.125 24.4874 135.311 23.3013 136.774 23.3013H169.34C170.803 23.3013 171.989 24.4874 171.989 25.9505C171.989 27.4136 170.803 28.5997 169.34 28.5997Z" fill="#9380B7"/>
</g>
<path d="M146.757 28.5997H136.774C135.311 28.5997 134.125 27.4136 134.125 25.9505C134.125 24.4874 135.311 23.3013 136.774 23.3013H146.757C148.22 23.3013 149.406 24.4874 149.406 25.9505C149.406 27.4136 148.22 28.5997 146.757 28.5997Z" fill="url(#paint11_linear_1789_1586)"/>
<path d="M146.757 28.5997H136.774C135.311 28.5997 134.125 27.4136 134.125 25.9505C134.125 24.4874 135.311 23.3013 136.774 23.3013H146.757C148.22 23.3013 149.406 24.4874 149.406 25.9505C149.406 27.4136 148.22 28.5997 146.757 28.5997Z" stroke="url(#paint12_linear_1789_1586)" stroke-width="0.361372" stroke-miterlimit="10"/>
<path d="M169.34 40.5221H136.774C135.311 40.5221 134.125 39.3359 134.125 37.8729C134.125 36.4098 135.311 35.2236 136.774 35.2236H169.34C170.803 35.2236 171.989 36.4098 171.989 37.8729C171.989 39.3354 170.803 40.5221 169.34 40.5221Z" fill="#EADAFE"/>
<g opacity="0.3">
<path d="M169.34 40.5221H136.774C135.311 40.5221 134.125 39.3359 134.125 37.8729C134.125 36.4098 135.311 35.2236 136.774 35.2236H169.34C170.803 35.2236 171.989 36.4098 171.989 37.8729C171.989 39.3354 170.803 40.5221 169.34 40.5221Z" fill="#9380B7"/>
</g>
<path d="M162.038 40.5221H136.774C135.311 40.5221 134.125 39.3359 134.125 37.8729C134.125 36.4098 135.311 35.2236 136.774 35.2236H162.038C163.502 35.2236 164.688 36.4098 164.688 37.8729C164.688 39.3354 163.502 40.5221 162.038 40.5221Z" fill="#65C15C"/>
<path d="M162.038 40.5221H136.774C135.311 40.5221 134.125 39.3359 134.125 37.8729C134.125 36.4098 135.311 35.2236 136.774 35.2236H162.038C163.502 35.2236 164.688 36.4098 164.688 37.8729C164.688 39.3354 163.502 40.5221 162.038 40.5221Z" stroke="#65C15C" stroke-width="0.361372" stroke-miterlimit="10"/>
<path d="M169.34 52.444H136.774C135.311 52.444 134.125 51.2578 134.125 49.7947C134.125 48.3317 135.311 47.1455 136.774 47.1455H169.34C170.803 47.1455 171.989 48.3317 171.989 49.7947C171.989 51.2578 170.803 52.444 169.34 52.444Z" fill="#EADAFE"/>
<g opacity="0.3">
<path d="M169.34 52.444H136.774C135.311 52.444 134.125 51.2578 134.125 49.7947C134.125 48.3317 135.311 47.1455 136.774 47.1455H169.34C170.803 47.1455 171.989 48.3317 171.989 49.7947C171.989 51.2578 170.803 52.444 169.34 52.444Z" fill="#9380B7"/>
</g>
<path d="M154.984 52.444H136.774C135.311 52.444 134.125 51.2578 134.125 49.7947C134.125 48.3317 135.311 47.1455 136.774 47.1455H154.984C156.448 47.1455 157.634 48.3317 157.634 49.7947C157.634 51.2578 156.448 52.444 154.984 52.444Z" fill="url(#paint13_linear_1789_1586)"/>
<path d="M154.984 52.444H136.774C135.311 52.444 134.125 51.2578 134.125 49.7947C134.125 48.3317 135.311 47.1455 136.774 47.1455H154.984C156.448 47.1455 157.634 48.3317 157.634 49.7947C157.634 51.2578 156.448 52.444 154.984 52.444Z" stroke="url(#paint14_linear_1789_1586)" stroke-width="0.361372" stroke-miterlimit="10"/>
<path d="M185.268 59.4532H129.999C128.175 59.4532 126.695 57.974 126.695 56.1491V19.5962C126.695 17.7712 128.175 16.292 129.999 16.292H185.268C187.092 16.292 188.572 17.7712 188.572 19.5962V56.1491C188.572 57.974 187.093 59.4532 185.268 59.4532Z" stroke="url(#paint15_linear_1789_1586)" stroke-width="0.361372" stroke-miterlimit="10"/>
<path d="M187.27 24.402C191.013 24.402 194.047 21.3677 194.047 17.6248C194.047 13.8819 191.013 10.8477 187.27 10.8477C183.527 10.8477 180.493 13.8819 180.493 17.6248C180.493 21.3677 183.527 24.402 187.27 24.402Z" fill="#65C15C"/>
<path d="M187.27 24.402C191.013 24.402 194.047 21.3677 194.047 17.6248C194.047 13.8819 191.013 10.8477 187.27 10.8477C183.527 10.8477 180.493 13.8819 180.493 17.6248C180.493 21.3677 183.527 24.402 187.27 24.402Z" stroke="#65C15C" stroke-width="0.722744" stroke-miterlimit="10"/>
<path d="M189.747 16.7554H188.096V15.1039C188.096 14.6478 187.725 14.2778 187.27 14.2778C186.814 14.2778 186.443 14.6478 186.443 15.1039V16.7554H184.792C184.336 16.7554 183.966 17.1253 183.966 17.5814C183.966 18.0375 184.336 18.4075 184.792 18.4075H186.443V20.059C186.443 20.5157 186.814 20.885 187.27 20.885C187.725 20.885 188.096 20.5151 188.096 20.059V18.4075H189.747C190.203 18.4075 190.573 18.0375 190.573 17.5814C190.573 17.1253 190.203 16.7554 189.747 16.7554Z" fill="white"/>
<g opacity="0.45">
<path d="M189.747 16.7554H188.096V15.1039C188.096 14.6478 187.725 14.2778 187.27 14.2778C186.814 14.2778 186.443 14.6478 186.443 15.1039V16.7554H184.792C184.336 16.7554 183.966 17.1253 183.966 17.5814C183.966 18.0375 184.336 18.4075 184.792 18.4075H186.443V20.059C186.443 20.5157 186.814 20.885 187.27 20.885C187.725 20.885 188.096 20.5151 188.096 20.059V18.4075H189.747C190.203 18.4075 190.573 18.0375 190.573 17.5814C190.573 17.1253 190.203 16.7554 189.747 16.7554Z" fill="white"/>
</g>
<path d="M99.7364 57.4826C103.459 57.4826 106.476 54.4652 106.476 50.743C106.476 47.0208 103.459 44.0034 99.7364 44.0034C96.0142 44.0034 92.9968 47.0208 92.9968 50.743C92.9968 54.4652 96.0142 57.4826 99.7364 57.4826Z" fill="url(#paint16_linear_1789_1586)"/>
<path d="M99.7364 57.4826C103.459 57.4826 106.476 54.4652 106.476 50.743C106.476 47.0208 103.459 44.0034 99.7364 44.0034C96.0142 44.0034 92.9968 47.0208 92.9968 50.743C92.9968 54.4652 96.0142 57.4826 99.7364 57.4826Z" stroke="url(#paint17_linear_1789_1586)" stroke-width="0.722744" stroke-miterlimit="10"/>
<path d="M99.9503 46.9851C99.8341 46.8637 99.6399 46.8637 99.5231 46.9851L96.6675 49.965H98.8473V54.2958C98.8473 54.4594 98.9797 54.5917 99.1433 54.5917H100.331C100.494 54.5917 100.627 54.4594 100.627 54.2958V49.965H102.807L99.9503 46.9851Z" fill="url(#paint18_linear_1789_1586)"/>
<path d="M72.9623 77.4363C75.523 77.4363 77.5989 75.3604 77.5989 72.7997C77.5989 70.239 75.523 68.1631 72.9623 68.1631C70.4016 68.1631 68.3257 70.239 68.3257 72.7997C68.3257 75.3604 70.4016 77.4363 72.9623 77.4363Z" fill="url(#paint19_linear_1789_1586)"/>
<path d="M72.9623 77.4363C75.523 77.4363 77.5989 75.3604 77.5989 72.7997C77.5989 70.239 75.523 68.1631 72.9623 68.1631C70.4016 68.1631 68.3257 70.239 68.3257 72.7997C68.3257 75.3604 70.4016 77.4363 72.9623 77.4363Z" stroke="url(#paint20_linear_1789_1586)" stroke-width="0.722744" stroke-miterlimit="10"/>
<path d="M72.8148 75.3855C72.8951 75.4693 73.0286 75.4693 73.109 75.3855L75.0732 73.3351H73.5737V70.3558C73.5737 70.2437 73.4824 70.1523 73.3697 70.1523H72.5529C72.4408 70.1523 72.3488 70.2437 72.3488 70.3558V73.3351H70.8494L72.8148 75.3855Z" fill="url(#paint21_linear_1789_1586)"/>
<path d="M149.406 117.063H151.429" stroke="url(#paint22_linear_1789_1586)" stroke-width="2.16823" stroke-miterlimit="10" stroke-linecap="round"/>
<path d="M155.347 117.063H184.724" stroke="url(#paint23_linear_1789_1586)" stroke-width="2.16823" stroke-miterlimit="10" stroke-linecap="round" stroke-dasharray="4.9 4.9"/>
<path d="M186.683 117.063H188.706" stroke="url(#paint24_linear_1789_1586)" stroke-width="2.16823" stroke-miterlimit="10" stroke-linecap="round"/>
<path d="M171.463 123.427C174.978 123.427 177.827 120.578 177.827 117.063C177.827 113.548 174.978 110.699 171.463 110.699C167.949 110.699 165.1 113.548 165.1 117.063C165.1 120.578 167.949 123.427 171.463 123.427Z" fill="url(#paint25_linear_1789_1586)"/>
<path d="M171.463 123.427C174.978 123.427 177.827 120.578 177.827 117.063C177.827 113.548 174.978 110.699 171.463 110.699C167.949 110.699 165.1 113.548 165.1 117.063C165.1 120.578 167.949 123.427 171.463 123.427Z" stroke="url(#paint26_linear_1789_1586)" stroke-width="0.722744" stroke-miterlimit="10"/>
<path d="M171.837 121.898V113.457H172.377V121.898H171.837ZM173.657 115.989C173.617 115.655 173.457 115.396 173.175 115.211C172.894 115.026 172.549 114.934 172.14 114.934C171.841 114.934 171.579 114.982 171.355 115.079C171.133 115.176 170.959 115.309 170.834 115.478C170.711 115.647 170.65 115.84 170.65 116.055C170.65 116.235 170.692 116.39 170.778 116.52C170.866 116.648 170.978 116.754 171.114 116.84C171.251 116.923 171.394 116.993 171.543 117.048C171.693 117.1 171.83 117.143 171.955 117.176L172.641 117.361C172.817 117.407 173.013 117.471 173.228 117.552C173.446 117.633 173.653 117.744 173.851 117.885C174.051 118.024 174.216 118.202 174.346 118.419C174.475 118.637 174.54 118.904 174.54 119.22C174.54 119.585 174.445 119.915 174.253 120.21C174.064 120.504 173.787 120.738 173.423 120.912C173.06 121.086 172.619 121.172 172.1 121.172C171.617 121.172 171.198 121.094 170.844 120.938C170.492 120.782 170.215 120.565 170.013 120.285C169.813 120.006 169.7 119.682 169.674 119.313H170.518C170.54 119.568 170.625 119.779 170.775 119.946C170.927 120.111 171.118 120.234 171.349 120.315C171.582 120.394 171.832 120.434 172.1 120.434C172.412 120.434 172.693 120.383 172.941 120.282C173.19 120.179 173.386 120.036 173.531 119.854C173.676 119.669 173.749 119.453 173.749 119.207C173.749 118.983 173.686 118.801 173.561 118.66C173.436 118.519 173.271 118.405 173.066 118.317C172.862 118.229 172.641 118.152 172.404 118.086L171.573 117.849C171.045 117.697 170.628 117.481 170.32 117.199C170.012 116.918 169.858 116.55 169.858 116.095C169.858 115.717 169.96 115.387 170.165 115.105C170.371 114.822 170.648 114.602 170.996 114.446C171.345 114.288 171.735 114.209 172.166 114.209C172.601 114.209 172.988 114.287 173.327 114.443C173.665 114.597 173.934 114.808 174.131 115.076C174.331 115.344 174.437 115.648 174.448 115.989H173.657Z" fill="black"/>
<path d="M171.837 121.898V113.457H172.377V121.898H171.837ZM173.657 115.989C173.617 115.655 173.457 115.396 173.175 115.211C172.894 115.026 172.549 114.934 172.14 114.934C171.841 114.934 171.579 114.982 171.355 115.079C171.133 115.176 170.959 115.309 170.834 115.478C170.711 115.647 170.65 115.84 170.65 116.055C170.65 116.235 170.692 116.39 170.778 116.52C170.866 116.648 170.978 116.754 171.114 116.84C171.251 116.923 171.394 116.993 171.543 117.048C171.693 117.1 171.83 117.143 171.955 117.176L172.641 117.361C172.817 117.407 173.013 117.471 173.228 117.552C173.446 117.633 173.653 117.744 173.851 117.885C174.051 118.024 174.216 118.202 174.346 118.419C174.475 118.637 174.54 118.904 174.54 119.22C174.54 119.585 174.445 119.915 174.253 120.21C174.064 120.504 173.787 120.738 173.423 120.912C173.06 121.086 172.619 121.172 172.1 121.172C171.617 121.172 171.198 121.094 170.844 120.938C170.492 120.782 170.215 120.565 170.013 120.285C169.813 120.006 169.7 119.682 169.674 119.313H170.518C170.54 119.568 170.625 119.779 170.775 119.946C170.927 120.111 171.118 120.234 171.349 120.315C171.582 120.394 171.832 120.434 172.1 120.434C172.412 120.434 172.693 120.383 172.941 120.282C173.19 120.179 173.386 120.036 173.531 119.854C173.676 119.669 173.749 119.453 173.749 119.207C173.749 118.983 173.686 118.801 173.561 118.66C173.436 118.519 173.271 118.405 173.066 118.317C172.862 118.229 172.641 118.152 172.404 118.086L171.573 117.849C171.045 117.697 170.628 117.481 170.32 117.199C170.012 116.918 169.858 116.55 169.858 116.095C169.858 115.717 169.96 115.387 170.165 115.105C170.371 114.822 170.648 114.602 170.996 114.446C171.345 114.288 171.735 114.209 172.166 114.209C172.601 114.209 172.988 114.287 173.327 114.443C173.665 114.597 173.934 114.808 174.131 115.076C174.331 115.344 174.437 115.648 174.448 115.989H173.657Z" fill="white"/>
<path d="M28.1853 93.3274C28.2373 93.45 28.2876 93.5731 28.3373 93.6968C28.4212 93.9055 28.5015 94.1165 28.579 94.3292L28.5951 94.3847L23.7776 95.2344L23.7614 95.1783C23.6874 94.9749 23.6083 94.7743 23.5244 94.5766C23.499 94.5171 23.4736 94.4581 23.4475 94.3991C21.6111 90.2579 17.6184 87.4283 14.1258 87.859C14.0848 87.8642 14.0628 87.8671 14.0414 87.87C13.9934 87.8769 13.9697 87.881 13.9454 87.8838C13.9108 87.8896 13.8928 87.8931 13.8743 87.896L11.6731 81.931C11.7292 81.9206 11.7766 81.9131 11.8234 81.9056C11.891 81.8946 11.9326 81.8888 11.9743 81.8825C11.987 81.8807 11.9997 81.879 12.0124 81.8773C12.05 81.8721 12.0876 81.8668 12.1251 81.8622C12.1408 81.8605 12.1564 81.8588 12.172 81.857C12.2072 81.8524 12.2425 81.8478 12.2772 81.8443C12.291 81.8431 12.3049 81.8414 12.3194 81.8403C12.3564 81.8362 12.3934 81.8322 12.4303 81.8287C12.4968 81.8223 12.5396 81.8183 12.5824 81.8154C12.5997 81.8142 12.6171 81.8131 12.6344 81.8119C12.6685 81.809 12.702 81.8067 12.7356 81.8044C12.7512 81.8033 12.7674 81.8027 12.783 81.8015C12.8182 81.7998 12.8535 81.7975 12.8887 81.7957C12.9067 81.7952 12.9246 81.7946 12.9425 81.7934C12.9755 81.7923 13.009 81.7905 13.0419 81.7894C13.0633 81.7888 13.0853 81.7882 13.1067 81.7877C13.1367 81.7871 13.1668 81.7859 13.1963 81.7853C13.2177 81.7853 13.2391 81.7853 13.2599 81.7848C13.2899 81.7848 13.32 81.7842 13.3495 81.7842C13.3789 81.7842 13.409 81.7842 13.4379 81.7848C13.4599 81.7848 13.4818 81.7848 13.5032 81.7848C13.531 81.7853 13.5593 81.7859 13.5876 81.7865C13.6113 81.7871 13.635 81.7876 13.6587 81.7882C13.694 81.7894 13.7292 81.7905 13.7639 81.7917C13.7801 81.7929 13.7963 81.7928 13.8119 81.794C13.8547 81.7957 13.8975 81.7981 13.9402 81.8004C14.0015 81.8038 14.0368 81.8061 14.0714 81.8085C14.0888 81.8096 14.1056 81.8108 14.1229 81.8119C14.1674 81.8148 14.2113 81.8189 14.2558 81.8223C14.3229 81.8281 14.3692 81.8327 14.4148 81.8368C14.4738 81.8426 14.5154 81.8472 14.557 81.8518C14.631 81.8599 14.6738 81.8651 14.716 81.8703C14.7923 81.8801 14.8408 81.8865 14.8894 81.8934C15.001 81.909 15.1033 81.9252 15.205 81.9426C19.6804 82.705 24.1984 86.1381 26.9933 90.9458C27.246 91.3805 27.4801 91.8187 27.7003 92.2667C27.7107 92.2881 27.7211 92.3089 27.7315 92.3303C27.8055 92.4829 27.8778 92.636 27.9483 92.7915C27.9604 92.817 27.972 92.843 27.9842 92.869C28.0258 92.9615 28.0668 93.054 28.1067 93.1465C28.1339 93.2066 28.1593 93.2667 28.1853 93.3274Z" fill="url(#paint27_linear_1789_1586)"/>
<path d="M23.7767 95.2336L23.7605 95.1775C23.6865 94.974 23.6073 94.7734 23.5235 94.5758C23.498 94.5162 23.4726 94.4573 23.4466 94.3983C23.3321 94.1399 23.209 93.8867 23.0784 93.6393C23.031 93.5503 22.9784 93.4653 22.9292 93.378C22.8419 93.2219 22.757 93.0653 22.6639 92.9138C22.6032 92.815 22.5362 92.7219 22.4726 92.6254C22.3847 92.4913 22.2991 92.3543 22.2066 92.2248C22.1373 92.1277 22.0621 92.0364 21.9905 91.9416C21.8997 91.8207 21.8107 91.6976 21.7159 91.5814C21.7141 91.5791 21.7118 91.5768 21.7101 91.5745C21.6997 91.5612 21.6881 91.549 21.6777 91.5363C21.5332 91.36 21.3829 91.1901 21.2309 91.0248C21.1812 90.9704 21.1309 90.9184 21.08 90.8658C20.9575 90.7369 20.8326 90.6126 20.7054 90.4906C20.6557 90.4426 20.606 90.3941 20.5551 90.3473C20.3811 90.1866 20.2054 90.0305 20.0245 89.8831C20.0147 89.875 20.0043 89.8681 19.9944 89.86C19.8227 89.7212 19.6482 89.5894 19.4713 89.4628C19.4152 89.4229 19.358 89.3842 19.3013 89.3455C19.162 89.2501 19.0221 89.1588 18.8799 89.0715C18.8233 89.0362 18.7678 89.001 18.7106 88.9674C18.5181 88.8536 18.3233 88.7455 18.1267 88.6472C18.1204 88.6437 18.114 88.6414 18.1076 88.638C17.9175 88.5437 17.7256 88.4588 17.5331 88.3807C17.4729 88.3559 17.4128 88.3339 17.3527 88.3108C17.2053 88.2541 17.0573 88.2021 16.9088 88.1547C16.8492 88.1362 16.7897 88.1165 16.7301 88.0986C16.529 88.0397 16.3272 87.9871 16.1255 87.946C16.1209 87.9454 16.1168 87.9449 16.1122 87.9437C15.9151 87.9044 15.7174 87.8767 15.5208 87.8547C15.4607 87.8483 15.4012 87.8443 15.3411 87.8397C15.1925 87.8275 15.0445 87.8212 14.8965 87.8194C14.837 87.8188 14.7775 87.8171 14.7179 87.8183C14.5185 87.8223 14.3196 87.8327 14.1231 87.857C14.0821 87.8622 14.0601 87.8651 14.0387 87.868C13.9907 87.8749 13.9664 87.879 13.9427 87.8819C13.9225 87.8853 13.9138 87.8871 13.9011 87.8888L13.9202 87.8767C13.234 87.9975 12.6161 88.2385 12.0739 88.5807L7.87256 91.2276C8.41478 90.886 9.03272 90.645 9.71887 90.5241L9.7553 90.501C9.76744 90.4987 9.77669 90.4976 9.79692 90.4941C9.8212 90.4901 9.84489 90.4866 9.89287 90.4802C9.91483 90.4773 9.9368 90.4739 9.97726 90.4687C10.1738 90.4444 10.3727 90.434 10.5721 90.4305C10.6316 90.4294 10.6912 90.4311 10.7507 90.4317C10.8981 90.4328 11.0467 90.4397 11.1952 90.4519C11.2554 90.4565 11.3149 90.4606 11.375 90.4669C11.5716 90.4883 11.7692 90.5166 11.9664 90.556C11.971 90.5571 11.975 90.5571 11.9797 90.5583C12.1814 90.5987 12.3831 90.6519 12.5843 90.7109C12.6438 90.7276 12.7034 90.7473 12.7629 90.7669C12.9115 90.8138 13.0595 90.8658 13.2069 90.9224C13.267 90.9456 13.3271 90.9681 13.3872 90.9924C13.5797 91.0716 13.7711 91.156 13.9607 91.2496C13.9676 91.2531 13.974 91.256 13.9809 91.2594C14.1774 91.3571 14.3717 91.4652 14.5647 91.5791C14.6214 91.6132 14.6774 91.6485 14.7341 91.6832C14.8757 91.7704 15.0162 91.8624 15.1555 91.9577C15.2122 91.9965 15.2688 92.0352 15.3255 92.0751C15.5023 92.2017 15.6769 92.3323 15.8486 92.4722C15.8584 92.4803 15.8688 92.4867 15.8787 92.4953C16.059 92.6427 16.2353 92.7982 16.4093 92.9589C16.4602 93.0063 16.5099 93.0549 16.5596 93.1029C16.6868 93.2248 16.8116 93.3497 16.9342 93.478C16.9845 93.5306 17.0354 93.5832 17.0851 93.6364C17.2377 93.8023 17.3868 93.9723 17.5319 94.1486C17.5423 94.1613 17.5539 94.1734 17.5643 94.1862C17.6608 94.3047 17.7516 94.4307 17.8446 94.5538C17.9163 94.6486 17.9915 94.7394 18.0608 94.837C18.1574 94.9723 18.2464 95.1139 18.3377 95.2544C18.3973 95.3452 18.4603 95.4336 18.5181 95.5261C18.6146 95.6827 18.7036 95.8463 18.7938 96.0082C18.8395 96.0903 18.8892 96.1683 18.9331 96.2516C19.0638 96.4995 19.1863 96.7521 19.3013 97.0105C19.3273 97.0701 19.3528 97.1285 19.3782 97.188C19.4626 97.3863 19.5418 97.5869 19.6158 97.7903L19.632 97.8458C19.71 98.0638 19.7782 98.2805 19.8418 98.4961C19.8615 98.5632 19.8782 98.6302 19.8967 98.6973C19.9383 98.8488 19.9771 98.9991 20.0112 99.1494C20.0279 99.2228 20.0441 99.2962 20.0592 99.3696C20.091 99.5216 20.1181 99.6713 20.1424 99.8216C20.1528 99.8835 20.1644 99.9459 20.173 100.007C20.2031 100.215 20.2274 100.422 20.2436 100.626C20.2459 100.652 20.2459 100.677 20.2476 100.703C20.2603 100.881 20.2684 101.058 20.2707 101.233C20.2719 101.297 20.2707 101.362 20.2702 101.427C20.2696 101.564 20.2655 101.7 20.2586 101.834C20.2551 101.901 20.2511 101.967 20.2465 102.034C20.2389 102.13 20.2274 102.223 20.217 102.318C20.2002 102.47 20.1794 102.619 20.1546 102.767C20.1407 102.85 20.1256 102.932 20.1089 103.013C20.0782 103.163 20.0424 103.309 20.0031 103.453C19.984 103.524 19.9667 103.596 19.9459 103.665C19.8898 103.849 19.8262 104.028 19.7563 104.203C19.747 104.226 19.7395 104.252 19.7297 104.276C19.6482 104.473 19.5563 104.661 19.4574 104.844C19.4279 104.898 19.3944 104.95 19.3632 105.002C19.2898 105.128 19.214 105.251 19.132 105.37C19.0898 105.43 19.0453 105.489 19.0013 105.548C18.9216 105.654 18.8383 105.755 18.7522 105.854C18.7036 105.91 18.6545 105.965 18.6036 106.018C18.5088 106.117 18.4088 106.21 18.3059 106.301C18.2579 106.343 18.2123 106.388 18.1626 106.428C18.0088 106.554 17.8493 106.673 17.6799 106.78L17.6787 106.78V106.781L21.8246 104.168C21.9939 104.061 22.1546 103.941 22.309 103.815C22.3581 103.776 22.4044 103.731 22.4518 103.688C22.5546 103.597 22.6546 103.504 22.75 103.405C22.8009 103.352 22.8495 103.296 22.898 103.241C22.9847 103.143 23.068 103.04 23.1477 102.935C23.1922 102.876 23.2362 102.818 23.2784 102.757C23.3605 102.639 23.4362 102.515 23.5096 102.389C23.5408 102.336 23.5738 102.285 23.6038 102.231C23.7027 102.048 23.7946 101.859 23.8761 101.663C23.8859 101.639 23.8934 101.613 23.9032 101.589C23.9732 101.415 24.0362 101.236 24.0923 101.052C24.1137 100.983 24.1304 100.911 24.1495 100.84C24.1882 100.696 24.2241 100.551 24.2553 100.401C24.2721 100.319 24.2865 100.237 24.301 100.154C24.3258 100.007 24.3466 99.8569 24.3634 99.7054C24.3692 99.6528 24.3802 99.6031 24.3854 99.5499C24.3894 99.5077 24.39 99.4638 24.3935 99.4205C24.3987 99.3546 24.4021 99.2881 24.4056 99.2222C24.4125 99.0869 24.4166 98.9499 24.4171 98.8123C24.4177 98.7482 24.4189 98.6846 24.4177 98.6198C24.4148 98.4435 24.4073 98.2661 24.394 98.0857C24.3923 98.0615 24.3923 98.0372 24.39 98.0129C24.3738 97.8083 24.3495 97.6013 24.3189 97.3932C24.3102 97.3331 24.2986 97.2712 24.2888 97.2105C24.279 97.1504 24.2697 97.0897 24.2593 97.0296L24.4495 96.9961L23.7767 95.2336Z" fill="url(#paint28_linear_1789_1586)"/>
<path d="M19.6148 97.7902L19.631 97.8457C19.709 98.0637 19.7772 98.2804 19.8408 98.496C19.8605 98.5631 19.8772 98.6301 19.8957 98.6972C19.9374 98.8486 19.9761 98.999 20.0102 99.1492C20.027 99.2227 20.0432 99.2961 20.0582 99.3695C20.09 99.5215 20.1171 99.6712 20.1414 99.8215C20.1518 99.8834 20.1634 99.9458 20.1721 100.007C20.2021 100.215 20.2264 100.422 20.2426 100.626C20.2449 100.652 20.2449 100.676 20.2466 100.702C20.2593 100.881 20.2674 101.057 20.2697 101.233C20.2709 101.297 20.2697 101.362 20.2692 101.427C20.2686 101.564 20.2645 101.7 20.2576 101.834C20.2541 101.901 20.2501 101.967 20.2455 102.034C20.2379 102.13 20.2264 102.223 20.216 102.318C20.1992 102.47 20.1784 102.619 20.1535 102.767C20.1397 102.85 20.1247 102.931 20.1079 103.013C20.0773 103.163 20.0414 103.309 20.0021 103.453C19.983 103.523 19.9657 103.596 19.9449 103.664C19.8888 103.849 19.8252 104.028 19.7553 104.203C19.746 104.226 19.7385 104.252 19.7287 104.276C19.6472 104.473 19.5553 104.661 19.4564 104.844C19.4269 104.898 19.3934 104.949 19.3622 105.002C19.2888 105.128 19.2131 105.251 19.131 105.37C19.0888 105.43 19.0443 105.489 19.0003 105.548C18.9206 105.654 18.8373 105.755 18.7512 105.854C18.7026 105.91 18.6535 105.965 18.6026 106.018C18.5078 106.117 18.4078 106.21 18.3049 106.3C18.2569 106.343 18.2113 106.388 18.1616 106.428C18.0078 106.554 17.8483 106.673 17.6789 106.78L17.6777 106.78V106.781L21.8236 104.168C21.9929 104.06 22.1536 103.941 22.308 103.815C22.3571 103.775 22.4033 103.731 22.4507 103.688C22.5536 103.597 22.6537 103.504 22.749 103.405C22.7999 103.352 22.8485 103.296 22.897 103.241C22.9837 103.143 23.067 103.04 23.1467 102.935C23.1912 102.876 23.2352 102.818 23.2774 102.757C23.3595 102.639 23.4352 102.515 23.5086 102.389C23.5398 102.336 23.5728 102.285 23.6028 102.231C23.7017 102.048 23.7936 101.859 23.8751 101.663C23.8849 101.639 23.8924 101.613 23.9023 101.589C23.9722 101.415 24.0352 101.236 24.0913 101.052C24.1127 100.983 24.1294 100.911 24.1485 100.84C24.1872 100.696 24.2231 100.55 24.2543 100.401C24.2711 100.319 24.2855 100.237 24.3 100.154C24.3248 100.007 24.3456 99.8568 24.3624 99.7053C24.3682 99.6527 24.3791 99.603 24.3844 99.5498C24.3884 99.5076 24.389 99.4637 24.3924 99.4204C24.3977 99.3545 24.4011 99.288 24.4046 99.2221C24.4115 99.0868 24.4156 98.9498 24.4162 98.8122C24.4167 98.7481 24.4179 98.6845 24.4167 98.6197C24.4138 98.4434 24.4063 98.266 24.393 98.0856C24.3913 98.0613 24.3913 98.0371 24.389 98.0128C24.3728 97.8082 24.3485 97.6012 24.3179 97.3931C24.3092 97.333 24.2976 97.2711 24.2878 97.2104C24.278 97.1503 24.2687 97.0896 24.2583 97.0295L24.4485 96.996L23.7762 95.2329L19.52 97.5509C19.5518 97.6313 19.5853 97.7099 19.6148 97.7902Z" fill="url(#paint29_linear_1789_1586)"/>
<path d="M25.2392 109.676C25.0236 109.811 24.8028 109.937 24.5733 110.052C24.486 110.095 24.3924 110.13 24.3033 110.171C24.1444 110.244 23.9871 110.32 23.8218 110.383C23.7178 110.423 23.6073 110.453 23.5004 110.489C23.3432 110.543 23.1877 110.6 23.0247 110.646C22.9091 110.678 22.7871 110.699 22.6692 110.727C22.5056 110.765 22.3449 110.808 22.1761 110.837C21.92 110.882 21.661 110.913 21.4015 110.938C21.331 110.944 21.2604 110.949 21.1899 110.954C20.9708 110.97 20.7512 110.979 20.5303 110.98C20.4847 110.98 20.439 110.983 20.3934 110.982C20.1332 110.981 19.8714 110.967 19.6101 110.946C19.5442 110.941 19.4789 110.933 19.413 110.926C19.2002 110.905 18.9875 110.878 18.7742 110.843C18.7106 110.834 18.6465 110.825 18.5829 110.813C18.3199 110.768 18.0568 110.713 17.7938 110.649C17.7447 110.637 17.6956 110.623 17.6464 110.611C17.425 110.553 17.2042 110.49 16.984 110.421C16.9129 110.398 16.8418 110.376 16.7712 110.353C16.5077 110.265 16.2446 110.172 15.9834 110.067C15.9735 110.063 15.9643 110.058 15.9545 110.055C15.7013 109.953 15.4492 109.841 15.1983 109.723C15.1278 109.69 15.0579 109.657 14.9874 109.622C14.766 109.514 14.5457 109.401 14.3272 109.281C14.2862 109.258 14.2451 109.238 14.2041 109.216C13.9509 109.074 13.7 108.924 13.4509 108.768C13.3873 108.728 13.3243 108.686 13.2607 108.645C13.0595 108.515 12.8595 108.38 12.6618 108.24C12.604 108.199 12.5456 108.16 12.4884 108.118C12.2456 107.942 12.0057 107.76 11.7687 107.571C11.7213 107.533 11.6751 107.493 11.6283 107.455C11.4329 107.295 11.2392 107.13 11.0479 106.961C10.9855 106.906 10.923 106.851 10.8612 106.795C10.6317 106.587 10.4051 106.374 10.1831 106.153C10.1681 106.139 10.1536 106.123 10.1392 106.108C9.9311 105.9 9.7276 105.684 9.52644 105.465C9.46806 105.401 9.41025 105.336 9.35245 105.272C9.16863 105.065 8.98712 104.854 8.81024 104.639C8.78018 104.603 8.74897 104.567 8.71891 104.531C8.54838 104.32 8.38074 104.106 8.21715 103.888C8.18998 103.851 8.16397 103.814 8.13738 103.777C8.00211 103.595 7.86916 103.41 7.7391 103.222C7.68418 103.142 7.63158 103.061 7.57783 102.98C7.4784 102.832 7.37955 102.683 7.28359 102.532C7.22521 102.44 7.16856 102.346 7.11133 102.253C7.02289 102.108 6.9356 101.963 6.85005 101.817C6.7934 101.719 6.7379 101.62 6.68183 101.521C6.59974 101.374 6.5194 101.226 6.44078 101.077C6.3876 100.977 6.33499 100.876 6.28355 100.775C6.20551 100.621 6.12979 100.466 6.05522 100.31C6.00782 100.211 5.95983 100.112 5.91416 100.012C5.83497 99.8396 5.75924 99.6644 5.68467 99.4893C5.64883 99.4049 5.61127 99.3211 5.576 99.2361C5.46791 98.9737 5.36502 98.7089 5.26732 98.4413C5.13148 98.0673 5.01182 97.695 4.90083 97.3239C4.86615 97.2083 4.83667 97.0932 4.8043 96.977C4.73205 96.7187 4.66499 96.4603 4.60487 96.2042C4.57539 96.0764 4.54649 95.9493 4.5199 95.8221C4.46556 95.566 4.41874 95.3105 4.37596 95.0573C4.35747 94.9469 4.33665 94.8353 4.32047 94.7255C4.26786 94.3677 4.22392 94.0122 4.19444 93.6607C4.19328 93.6469 4.19328 93.6324 4.19213 93.6185C4.16496 93.2815 4.15051 92.9491 4.14473 92.6191C4.14299 92.5104 4.14473 92.4029 4.14531 92.2948C4.14589 92.0578 4.15109 91.8225 4.16323 91.5896C4.16901 91.4734 4.17594 91.3578 4.18461 91.2421C4.19733 91.071 4.217 90.9034 4.23607 90.7352C4.2644 90.4785 4.29965 90.2253 4.34185 89.9762C4.36613 89.834 4.38982 89.6924 4.41873 89.5531C4.47133 89.2958 4.53376 89.0438 4.60082 88.7952C4.63261 88.6773 4.66036 88.5571 4.69562 88.442C4.79967 88.0987 4.91586 87.764 5.04766 87.4408C5.05344 87.4275 5.05749 87.4119 5.06327 87.3986C5.20201 87.0628 5.35923 86.7408 5.52802 86.4287C5.5812 86.3304 5.64074 86.2385 5.69681 86.1425C5.81994 85.9327 5.94711 85.7257 6.08353 85.528C6.15637 85.4223 6.23269 85.3217 6.30957 85.2199C6.44483 85.0402 6.58588 84.8673 6.7327 84.7003C6.81652 84.6049 6.90033 84.5095 6.98761 84.4188C7.15005 84.2494 7.32057 84.0904 7.49572 83.9349C7.57723 83.8627 7.65528 83.7864 7.73968 83.7176C8.00385 83.5014 8.27784 83.2973 8.56745 83.1152L6.58588 84.3638L4.4222 85.7269C4.13259 85.909 3.85801 86.1136 3.59442 86.3298C3.51002 86.3986 3.43199 86.4743 3.35048 86.5466C3.17533 86.7021 3.00422 86.8616 2.84179 87.031C2.7545 87.1217 2.67126 87.2165 2.58744 87.3119C2.44061 87.4796 2.29957 87.653 2.16431 87.8322C2.088 87.9339 2.01113 88.0351 1.93829 88.1403C1.80187 88.338 1.67469 88.5438 1.55157 88.7548C1.49549 88.8501 1.43596 88.9421 1.38278 89.0403C1.21398 89.3531 1.05674 89.675 0.91801 90.0109C0.912808 90.0236 0.908765 90.038 0.903562 90.0508C0.771187 90.3751 0.655006 90.7103 0.550956 91.0543C0.515694 91.1693 0.487947 91.2895 0.456153 91.4075C0.389099 91.656 0.326671 91.9075 0.274646 92.1653C0.246321 92.3046 0.222028 92.4462 0.197749 92.5879C0.155551 92.8376 0.120295 93.0908 0.0913923 93.3474C0.0815653 93.4336 0.0636564 93.5162 0.0555636 93.6041C0.0480488 93.6862 0.0463141 93.7711 0.0405335 93.8544C0.0318627 93.9694 0.0249157 94.085 0.0191351 94.2018C0.00699589 94.4347 0.00178999 94.6706 0.00121193 94.9082C0.00121193 95.0157 -0.00108675 95.1221 0.000647423 95.2307C0.006428 95.5602 0.0208799 95.8932 0.0480486 96.2302C0.0492047 96.2441 0.0492034 96.2585 0.0503595 96.2724C0.0792624 96.6233 0.123187 96.9794 0.176369 97.3372C0.192554 97.447 0.213369 97.558 0.231867 97.6684C0.274643 97.9222 0.321466 98.1777 0.376381 98.4343C0.402972 98.5615 0.431877 98.6881 0.461358 98.8153C0.521475 99.0714 0.588527 99.3297 0.660206 99.5881C0.692577 99.7037 0.722054 99.8188 0.756737 99.9355C0.867146 100.307 0.986801 100.678 1.12264 101.052C1.21976 101.321 1.32381 101.585 1.43133 101.847C1.46659 101.932 1.50359 102.016 1.54001 102.1C1.61458 102.276 1.69031 102.451 1.7695 102.624C1.81517 102.724 1.86314 102.822 1.91054 102.921C1.98511 103.077 2.06083 103.232 2.13887 103.386C2.19031 103.488 2.2435 103.588 2.2961 103.688C2.37529 103.837 2.45508 103.985 2.53716 104.132C2.59266 104.231 2.64814 104.33 2.70537 104.428C2.79034 104.574 2.87821 104.72 2.96665 104.864C3.02388 104.957 3.08053 105.051 3.13891 105.143C3.23487 105.294 3.33372 105.443 3.43315 105.591C3.48691 105.672 3.54008 105.753 3.59442 105.832C3.72448 106.021 3.85801 106.206 3.9927 106.388C4.01929 106.425 4.0453 106.462 4.07247 106.499C4.23606 106.717 4.4037 106.931 4.57423 107.141C4.58175 107.15 4.5881 107.16 4.59561 107.169C4.61816 107.197 4.64244 107.223 4.66556 107.25C4.84302 107.466 5.02396 107.676 5.20779 107.883C5.26559 107.948 5.32339 108.013 5.38178 108.076C5.58236 108.296 5.78584 108.511 5.99452 108.72C6.00897 108.734 6.02341 108.75 6.03844 108.765C6.26042 108.986 6.48702 109.198 6.71651 109.406C6.77836 109.463 6.84079 109.517 6.90322 109.573C7.09456 109.742 7.2882 109.906 7.48359 110.067C7.53099 110.105 7.57666 110.145 7.62406 110.182C7.86107 110.372 8.10096 110.554 8.34374 110.73C8.40097 110.771 8.45936 110.811 8.51659 110.852C8.71486 110.991 8.91428 111.126 9.11602 111.256C9.17961 111.297 9.24263 111.339 9.30621 111.379C9.55535 111.536 9.80624 111.686 10.0594 111.827C10.0999 111.85 10.1415 111.87 10.1825 111.893C10.401 112.012 10.6213 112.125 10.8427 112.234C10.9132 112.268 10.9831 112.302 11.0537 112.335C11.3045 112.452 11.556 112.564 11.8092 112.667C11.819 112.671 11.8283 112.675 11.8381 112.679C12.1 112.783 12.363 112.877 12.626 112.964C12.6971 112.988 12.7676 113.01 12.8387 113.033C13.0595 113.101 13.2803 113.165 13.5012 113.222C13.5503 113.234 13.5994 113.249 13.6486 113.261C13.9116 113.325 14.1746 113.379 14.4376 113.425C14.5012 113.437 14.5654 113.445 14.629 113.455C14.8423 113.489 15.055 113.516 15.2677 113.538C15.3336 113.545 15.3989 113.552 15.4642 113.557C15.7261 113.579 15.9874 113.592 16.2481 113.594C16.2938 113.594 16.3394 113.592 16.3851 113.592C16.6059 113.59 16.8256 113.581 17.0447 113.566C17.1152 113.56 17.1857 113.555 17.2562 113.549C17.5164 113.525 17.7747 113.494 18.0314 113.449C18.0366 113.448 18.0418 113.447 18.0464 113.446C18.21 113.417 18.3661 113.375 18.5251 113.337C18.643 113.309 18.7644 113.289 18.8794 113.257C19.0482 113.21 19.2095 113.151 19.3725 113.095C19.4731 113.06 19.5777 113.033 19.676 112.995C19.8534 112.927 20.0228 112.846 20.1933 112.767C20.2708 112.731 20.3517 112.701 20.428 112.663C20.6431 112.555 20.8494 112.436 21.0518 112.312C21.0784 112.296 21.1073 112.282 21.1333 112.266L23.9675 110.479C24.2317 110.313 24.4918 110.15 24.7403 109.993L24.8461 109.926C24.9941 109.832 25.1398 109.741 25.2791 109.653C25.2658 109.663 25.2519 109.669 25.2392 109.676Z" fill="url(#paint30_linear_1789_1586)"/>
<path d="M20.005 104.862C23.7589 104.2 25.4445 99.8883 23.7768 95.2338L28.5984 94.3834C31.4592 102.332 28.5857 109.707 22.1762 110.837C15.7488 111.971 8.16234 106.411 5.2657 98.4397C2.36905 90.4677 5.24371 83.0628 11.6717 81.9292L13.8412 87.9C10.0693 88.5647 8.38373 92.9117 10.0838 97.5899C11.7839 102.267 16.2332 105.527 20.005 104.862Z" fill="url(#paint31_linear_1789_1586)"/>
<path d="M20.005 104.862C23.7589 104.2 25.4445 99.8883 23.7768 95.2338L28.5984 94.3834C31.4592 102.332 28.5857 109.707 22.1762 110.837C15.7488 111.971 8.16234 106.411 5.2657 98.4397C2.36905 90.4677 5.24371 83.0628 11.6717 81.9292L13.8412 87.9C10.0693 88.5647 8.38373 92.9117 10.0838 97.5899C11.7839 102.267 16.2332 105.527 20.005 104.862Z" stroke="url(#paint32_linear_1789_1586)" stroke-width="0.180686" stroke-miterlimit="10"/>
<path d="M28.1853 93.3274C28.2373 93.45 28.2876 93.5731 28.3373 93.6968C28.4212 93.9055 28.5015 94.1165 28.579 94.3292L28.5951 94.3847L23.7776 95.2344L23.7614 95.1783C23.6874 94.9749 23.6083 94.7743 23.5244 94.5766C23.499 94.5171 23.4736 94.4581 23.4475 94.3991C21.6111 90.2579 17.6184 87.4283 14.1258 87.859C14.0848 87.8642 14.0628 87.8671 14.0414 87.87C13.9934 87.8769 13.9697 87.881 13.9454 87.8838C13.9108 87.8896 13.8928 87.8931 13.8743 87.896L11.6731 81.931C11.7292 81.9206 11.7766 81.9131 11.8234 81.9056C11.891 81.8946 11.9326 81.8888 11.9743 81.8825C11.987 81.8807 11.9997 81.879 12.0124 81.8773C12.05 81.8721 12.0876 81.8668 12.1251 81.8622C12.1408 81.8605 12.1564 81.8588 12.172 81.857C12.2072 81.8524 12.2425 81.8478 12.2772 81.8443C12.291 81.8431 12.3049 81.8414 12.3194 81.8403C12.3564 81.8362 12.3934 81.8322 12.4303 81.8287C12.4968 81.8223 12.5396 81.8183 12.5824 81.8154C12.5997 81.8142 12.6171 81.8131 12.6344 81.8119C12.6685 81.809 12.702 81.8067 12.7356 81.8044C12.7512 81.8033 12.7674 81.8027 12.783 81.8015C12.8182 81.7998 12.8535 81.7975 12.8887 81.7957C12.9067 81.7952 12.9246 81.7946 12.9425 81.7934C12.9755 81.7923 13.009 81.7905 13.0419 81.7894C13.0633 81.7888 13.0853 81.7882 13.1067 81.7877C13.1367 81.7871 13.1668 81.7859 13.1963 81.7853C13.2177 81.7853 13.2391 81.7853 13.2599 81.7848C13.2899 81.7848 13.32 81.7842 13.3495 81.7842C13.3789 81.7842 13.409 81.7842 13.4379 81.7848C13.4599 81.7848 13.4818 81.7848 13.5032 81.7848C13.531 81.7853 13.5593 81.7859 13.5876 81.7865C13.6113 81.7871 13.635 81.7876 13.6587 81.7882C13.694 81.7894 13.7292 81.7905 13.7639 81.7917C13.7801 81.7929 13.7963 81.7928 13.8119 81.794C13.8547 81.7957 13.8975 81.7981 13.9402 81.8004C14.0015 81.8038 14.0368 81.8061 14.0714 81.8085C14.0888 81.8096 14.1056 81.8108 14.1229 81.8119C14.1674 81.8148 14.2113 81.8189 14.2558 81.8223C14.3229 81.8281 14.3692 81.8327 14.4148 81.8368C14.4738 81.8426 14.5154 81.8472 14.557 81.8518C14.631 81.8599 14.6738 81.8651 14.716 81.8703C14.7923 81.8801 14.8408 81.8865 14.8894 81.8934C15.001 81.909 15.1033 81.9252 15.205 81.9426C19.6804 82.705 24.1984 86.1381 26.9933 90.9458C27.246 91.3805 27.4801 91.8187 27.7003 92.2667C27.7107 92.2881 27.7211 92.3089 27.7315 92.3303C27.8055 92.4829 27.8778 92.636 27.9483 92.7915C27.9604 92.817 27.972 92.843 27.9842 92.869C28.0258 92.9615 28.0668 93.054 28.1067 93.1465C28.1339 93.2066 28.1593 93.2667 28.1853 93.3274Z" stroke="url(#paint33_linear_1789_1586)" stroke-width="0.180686" stroke-miterlimit="10"/>
<path d="M77.2043 151.944H121.004C122.829 151.944 124.308 150.464 124.308 148.64V119.291C124.308 117.467 122.829 115.987 121.004 115.987H77.2043C75.3794 115.987 73.9001 117.467 73.9001 119.291V148.64C73.9001 150.464 75.3794 151.944 77.2043 151.944Z" fill="url(#paint34_linear_1789_1586)"/>
<path d="M77.2043 151.944H121.004C122.829 151.944 124.308 150.464 124.308 148.64V119.291C124.308 117.467 122.829 115.987 121.004 115.987H77.2043C75.3794 115.987 73.9001 117.467 73.9001 119.291V148.64C73.9001 150.464 75.3794 151.944 77.2043 151.944Z" stroke="url(#paint35_linear_1789_1586)" stroke-width="0.361372" stroke-miterlimit="10"/>
<path d="M85.7908 130.635H80.0339V146.709H85.7908V130.635Z" fill="url(#paint36_linear_1789_1586)"/>
<path d="M85.7908 130.635H80.0339V146.709H85.7908V130.635Z" stroke="url(#paint37_linear_1789_1586)" stroke-width="0.180686" stroke-miterlimit="10"/>
<path d="M107.38 136.982H101.623V146.708H107.38V136.982Z" fill="url(#paint38_linear_1789_1586)"/>
<path d="M107.38 136.982H101.623V146.708H107.38V136.982Z" stroke="url(#paint39_linear_1789_1586)" stroke-width="0.180686" stroke-miterlimit="10"/>
<path d="M96.5852 125.898H90.8284V146.709H96.5852V125.898Z" fill="url(#paint40_linear_1789_1586)"/>
<path d="M96.5852 125.898H90.8284V146.709H96.5852V125.898Z" stroke="url(#paint41_linear_1789_1586)" stroke-width="0.180686" stroke-miterlimit="10"/>
<path d="M118.174 121.223H112.417V146.709H118.174V121.223Z" fill="url(#paint42_linear_1789_1586)"/>
<path d="M118.174 121.223H112.417V146.709H118.174V121.223Z" stroke="url(#paint43_linear_1789_1586)" stroke-width="0.180686" stroke-miterlimit="10"/>
<path d="M95.1748 7.60547H97.198" stroke="url(#paint44_linear_1789_1586)" stroke-width="2.16823" stroke-miterlimit="10" stroke-linecap="round"/>
<path d="M100.725 7.60547H120.124" stroke="url(#paint45_linear_1789_1586)" stroke-width="2.16823" stroke-miterlimit="10" stroke-linecap="round" stroke-dasharray="4.41 4.41"/>
<path d="M121.888 7.60547H123.911" stroke="url(#paint46_linear_1789_1586)" stroke-width="2.16823" stroke-miterlimit="10" stroke-linecap="round"/>
<path d="M157.02 1.30988C157.382 1.30988 157.675 1.01665 157.675 0.654941C157.675 0.293228 157.382 0 157.02 0C156.658 0 156.365 0.293228 156.365 0.654941C156.365 1.01665 156.658 1.30988 157.02 1.30988Z" fill="#EADAFE"/>
<path d="M174.606 1.30988C174.968 1.30988 175.261 1.01665 175.261 0.654941C175.261 0.293228 174.968 0 174.606 0C174.244 0 173.951 0.293228 173.951 0.654941C173.951 1.01665 174.244 1.30988 174.606 1.30988Z" fill="#EADAFE"/>
<path d="M157.021 5.70637C157.382 5.70637 157.676 5.41313 157.676 5.05142C157.676 4.68971 157.382 4.39648 157.021 4.39648C156.659 4.39648 156.366 4.68971 156.366 5.05142C156.366 5.41313 156.659 5.70637 157.021 5.70637Z" fill="#EADAFE"/>
<path d="M174.606 5.70637C174.968 5.70637 175.261 5.41313 175.261 5.05142C175.261 4.68971 174.968 4.39648 174.606 4.39648C174.244 4.39648 173.951 4.68971 173.951 5.05142C173.951 5.41313 174.244 5.70637 174.606 5.70637Z" fill="#EADAFE"/>
<path d="M165.813 1.30988C166.175 1.30988 166.468 1.01665 166.468 0.654941C166.468 0.293228 166.175 0 165.813 0C165.451 0 165.158 0.293228 165.158 0.654941C165.158 1.01665 165.451 1.30988 165.813 1.30988Z" fill="#EADAFE"/>
<path d="M165.813 5.70637C166.175 5.70637 166.468 5.41313 166.468 5.05142C166.468 4.68971 166.175 4.39648 165.813 4.39648C165.451 4.39648 165.158 4.68971 165.158 5.05142C165.158 5.41313 165.451 5.70637 165.813 5.70637Z" fill="#EADAFE"/>
<path d="M170.21 1.30988C170.572 1.30988 170.865 1.01665 170.865 0.654941C170.865 0.293228 170.572 0 170.21 0C169.848 0 169.555 0.293228 169.555 0.654941C169.555 1.01665 169.848 1.30988 170.21 1.30988Z" fill="#EADAFE"/>
<path d="M170.21 5.70637C170.572 5.70637 170.865 5.41313 170.865 5.05142C170.865 4.68971 170.572 4.39648 170.21 4.39648C169.848 4.39648 169.555 4.68971 169.555 5.05142C169.555 5.41313 169.848 5.70637 170.21 5.70637Z" fill="#EADAFE"/>
<path d="M161.417 1.30988C161.779 1.30988 162.072 1.01665 162.072 0.654941C162.072 0.293228 161.779 0 161.417 0C161.055 0 160.762 0.293228 160.762 0.654941C160.762 1.01665 161.055 1.30988 161.417 1.30988Z" fill="#EADAFE"/>
<path d="M161.417 5.70637C161.779 5.70637 162.072 5.41313 162.072 5.05142C162.072 4.68971 161.779 4.39648 161.417 4.39648C161.055 4.39648 160.762 4.68971 160.762 5.05142C160.762 5.41313 161.055 5.70637 161.417 5.70637Z" fill="#EADAFE"/>
<path d="M133.768 138.72C134.13 138.72 134.423 138.427 134.423 138.065C134.423 137.703 134.13 137.41 133.768 137.41C133.407 137.41 133.114 137.703 133.114 138.065C133.114 138.427 133.407 138.72 133.768 138.72Z" fill="#EADAFE"/>
<path d="M151.355 138.72C151.716 138.72 152.01 138.427 152.01 138.065C152.01 137.703 151.716 137.41 151.355 137.41C150.993 137.41 150.7 137.703 150.7 138.065C150.7 138.427 150.993 138.72 151.355 138.72Z" fill="#EADAFE"/>
<path d="M133.769 143.117C134.13 143.117 134.424 142.824 134.424 142.462C134.424 142.1 134.13 141.807 133.769 141.807C133.407 141.807 133.114 142.1 133.114 142.462C133.114 142.824 133.407 143.117 133.769 143.117Z" fill="#EADAFE"/>
<path d="M151.355 143.117C151.716 143.117 152.01 142.824 152.01 142.462C152.01 142.1 151.716 141.807 151.355 141.807C150.993 141.807 150.7 142.1 150.7 142.462C150.7 142.824 150.993 143.117 151.355 143.117Z" fill="#EADAFE"/>
<path d="M142.562 138.72C142.924 138.72 143.217 138.427 143.217 138.065C143.217 137.703 142.924 137.41 142.562 137.41C142.2 137.41 141.907 137.703 141.907 138.065C141.907 138.427 142.2 138.72 142.562 138.72Z" fill="#EADAFE"/>
<path d="M142.562 143.117C142.924 143.117 143.217 142.824 143.217 142.462C143.217 142.1 142.924 141.807 142.562 141.807C142.2 141.807 141.907 142.1 141.907 142.462C141.907 142.824 142.2 143.117 142.562 143.117Z" fill="#EADAFE"/>
<path d="M146.959 138.72C147.32 138.72 147.614 138.427 147.614 138.065C147.614 137.703 147.32 137.41 146.959 137.41C146.597 137.41 146.304 137.703 146.304 138.065C146.304 138.427 146.597 138.72 146.959 138.72Z" fill="#EADAFE"/>
<path d="M146.959 143.117C147.32 143.117 147.614 142.824 147.614 142.462C147.614 142.1 147.32 141.807 146.959 141.807C146.597 141.807 146.304 142.1 146.304 142.462C146.304 142.824 146.597 143.117 146.959 143.117Z" fill="#EADAFE"/>
<path d="M138.165 138.72C138.527 138.72 138.82 138.427 138.82 138.065C138.82 137.703 138.527 137.41 138.165 137.41C137.804 137.41 137.51 137.703 137.51 138.065C137.51 138.427 137.804 138.72 138.165 138.72Z" fill="#EADAFE"/>
<path d="M138.165 143.117C138.527 143.117 138.82 142.824 138.82 142.462C138.82 142.1 138.527 141.807 138.165 141.807C137.804 141.807 137.51 142.1 137.51 142.462C137.51 142.824 137.804 143.117 138.165 143.117Z" fill="#EADAFE"/>
<path d="M198.948 71.8338C199.31 71.8338 199.603 71.5406 199.603 71.1789C199.603 70.8172 199.31 70.5239 198.948 70.5239C198.587 70.5239 198.293 70.8172 198.293 71.1789C198.293 71.5406 198.587 71.8338 198.948 71.8338Z" fill="#EADAFE"/>
<path d="M198.948 54.2479C199.31 54.2479 199.603 53.9546 199.603 53.5929C199.603 53.2312 199.31 52.938 198.948 52.938C198.587 52.938 198.293 53.2312 198.293 53.5929C198.293 53.9546 198.587 54.2479 198.948 54.2479Z" fill="#EADAFE"/>
<path d="M203.345 71.8338C203.707 71.8338 204 71.5406 204 71.1789C204 70.8172 203.707 70.5239 203.345 70.5239C202.984 70.5239 202.69 70.8172 202.69 71.1789C202.69 71.5406 202.984 71.8338 203.345 71.8338Z" fill="#EADAFE"/>
<path d="M203.345 54.2479C203.707 54.2479 204 53.9546 204 53.5929C204 53.2312 203.707 52.938 203.345 52.938C202.984 52.938 202.69 53.2312 202.69 53.5929C202.69 53.9546 202.984 54.2479 203.345 54.2479Z" fill="#EADAFE"/>
<path d="M198.948 63.0408C199.31 63.0408 199.603 62.7476 199.603 62.3859C199.603 62.0242 199.31 61.731 198.948 61.731C198.587 61.731 198.293 62.0242 198.293 62.3859C198.293 62.7476 198.587 63.0408 198.948 63.0408Z" fill="#EADAFE"/>
<path d="M203.345 63.0408C203.707 63.0408 204 62.7476 204 62.3859C204 62.0242 203.707 61.731 203.345 61.731C202.984 61.731 202.69 62.0242 202.69 62.3859C202.69 62.7476 202.984 63.0408 203.345 63.0408Z" fill="#EADAFE"/>
<path d="M198.948 58.6443C199.31 58.6443 199.603 58.3511 199.603 57.9894C199.603 57.6277 199.31 57.3345 198.948 57.3345C198.587 57.3345 198.293 57.6277 198.293 57.9894C198.293 58.3511 198.587 58.6443 198.948 58.6443Z" fill="#EADAFE"/>
<path d="M203.345 58.6443C203.707 58.6443 204 58.3511 204 57.9894C204 57.6277 203.707 57.3345 203.345 57.3345C202.984 57.3345 202.69 57.6277 202.69 57.9894C202.69 58.3511 202.984 58.6443 203.345 58.6443Z" fill="#EADAFE"/>
<path d="M198.948 67.4373C199.31 67.4373 199.603 67.1441 199.603 66.7824C199.603 66.4207 199.31 66.1274 198.948 66.1274C198.587 66.1274 198.293 66.4207 198.293 66.7824C198.293 67.1441 198.587 67.4373 198.948 67.4373Z" fill="#EADAFE"/>
<path d="M203.345 67.4373C203.707 67.4373 204 67.1441 204 66.7824C204 66.4207 203.707 66.1274 203.345 66.1274C202.984 66.1274 202.69 66.4207 202.69 66.7824C202.69 67.1441 202.984 67.4373 203.345 67.4373Z" fill="#EADAFE"/>
<path d="M14.859 55.9017C15.2208 55.9017 15.514 55.6085 15.514 55.2467C15.514 54.885 15.2208 54.5918 14.859 54.5918C14.4973 54.5918 14.2041 54.885 14.2041 55.2467C14.2041 55.6085 14.4973 55.9017 14.859 55.9017Z" fill="#EADAFE"/>
<path d="M32.4452 55.9017C32.8069 55.9017 33.1002 55.6085 33.1002 55.2467C33.1002 54.885 32.8069 54.5918 32.4452 54.5918C32.0835 54.5918 31.7903 54.885 31.7903 55.2467C31.7903 55.6085 32.0835 55.9017 32.4452 55.9017Z" fill="#EADAFE"/>
<path d="M14.859 60.2987C15.2208 60.2987 15.514 60.0054 15.514 59.6437C15.514 59.282 15.2208 58.9888 14.859 58.9888C14.4973 58.9888 14.2041 59.282 14.2041 59.6437C14.2041 60.0054 14.4973 60.2987 14.859 60.2987Z" fill="#EADAFE"/>
<path d="M32.4452 60.2987C32.8069 60.2987 33.1002 60.0054 33.1002 59.6437C33.1002 59.282 32.8069 58.9888 32.4452 58.9888C32.0835 58.9888 31.7903 59.282 31.7903 59.6437C31.7903 60.0054 32.0835 60.2987 32.4452 60.2987Z" fill="#EADAFE"/>
<path d="M23.6523 55.9017C24.014 55.9017 24.3072 55.6085 24.3072 55.2467C24.3072 54.885 24.014 54.5918 23.6523 54.5918C23.2905 54.5918 22.9973 54.885 22.9973 55.2467C22.9973 55.6085 23.2905 55.9017 23.6523 55.9017Z" fill="#EADAFE"/>
<path d="M23.6523 60.2987C24.014 60.2987 24.3072 60.0054 24.3072 59.6437C24.3072 59.282 24.014 58.9888 23.6523 58.9888C23.2905 58.9888 22.9973 59.282 22.9973 59.6437C22.9973 60.0054 23.2905 60.2987 23.6523 60.2987Z" fill="#EADAFE"/>
<path d="M28.049 55.9017C28.4107 55.9017 28.7039 55.6085 28.7039 55.2467C28.7039 54.885 28.4107 54.5918 28.049 54.5918C27.6873 54.5918 27.394 54.885 27.394 55.2467C27.394 55.6085 27.6873 55.9017 28.049 55.9017Z" fill="#EADAFE"/>
<path d="M28.049 60.2987C28.4107 60.2987 28.7039 60.0054 28.7039 59.6437C28.7039 59.282 28.4107 58.9888 28.049 58.9888C27.6873 58.9888 27.394 59.282 27.394 59.6437C27.394 60.0054 27.6873 60.2987 28.049 60.2987Z" fill="#EADAFE"/>
<path d="M19.2558 55.9017C19.6175 55.9017 19.9107 55.6085 19.9107 55.2467C19.9107 54.885 19.6175 54.5918 19.2558 54.5918C18.8941 54.5918 18.6008 54.885 18.6008 55.2467C18.6008 55.6085 18.8941 55.9017 19.2558 55.9017Z" fill="#EADAFE"/>
<path d="M19.2558 60.2987C19.6175 60.2987 19.9107 60.0054 19.9107 59.6437C19.9107 59.282 19.6175 58.9888 19.2558 58.9888C18.8941 58.9888 18.6008 59.282 18.6008 59.6437C18.6008 60.0054 18.8941 60.2987 19.2558 60.2987Z" fill="#EADAFE"/>
<defs>
<linearGradient id="paint0_linear_1789_1586" x1="33.9844" y1="119.922" x2="202.851" y2="119.922" gradientUnits="userSpaceOnUse">
<stop stop-color="#7366FF"/>
<stop offset="1" stop-color="#563EE0"/>
</linearGradient>
<linearGradient id="paint1_linear_1789_1586" x1="73.5081" y1="147.284" x2="127.331" y2="67.4878" gradientUnits="userSpaceOnUse">
<stop stop-color="#3D2FBA"/>
<stop offset="1" stop-color="#9D7AF0"/>
</linearGradient>
<linearGradient id="paint2_linear_1789_1586" x1="64.2879" y1="29.8843" x2="41.8757" y2="61.5802" gradientUnits="userSpaceOnUse">
<stop stop-color="#9FD2FC"/>
<stop offset="1" stop-color="#93BCFC"/>
</linearGradient>
<linearGradient id="paint3_linear_1789_1586" x1="66.4822" y1="26.7815" x2="42.2086" y2="61.1097" gradientUnits="userSpaceOnUse">
<stop stop-color="#DBEDFC"/>
<stop offset="1" stop-color="#80A3DB"/>
</linearGradient>
<linearGradient id="paint4_linear_1789_1586" x1="58.7969" y1="39.0085" x2="90.2067" y2="39.0085" gradientUnits="userSpaceOnUse">
<stop stop-color="#7366FF"/>
<stop offset="1" stop-color="#563EE0"/>
</linearGradient>
<linearGradient id="paint5_linear_1789_1586" x1="56.6389" y1="36.419" x2="76.3096" y2="23.6447" gradientUnits="userSpaceOnUse">
<stop stop-color="#3D2FBA"/>
<stop offset="1" stop-color="#9D7AF0"/>
</linearGradient>
<linearGradient id="paint6_linear_1789_1586" x1="185.276" y1="70.1892" x2="166.85" y2="97.3095" gradientUnits="userSpaceOnUse">
<stop stop-color="#9FD2FC"/>
<stop offset="1" stop-color="#93BCFC"/>
</linearGradient>
<linearGradient id="paint7_linear_1789_1586" x1="186.914" y1="72.0261" x2="165.641" y2="96.4983" gradientUnits="userSpaceOnUse">
<stop stop-color="#DBEDFC"/>
<stop offset="1" stop-color="#80A3DB"/>
</linearGradient>
<linearGradient id="paint8_linear_1789_1586" x1="182.845" y1="98.8187" x2="191.561" y2="85.878" gradientUnits="userSpaceOnUse">
<stop stop-color="#00BEBF"/>
<stop offset="1" stop-color="#39E6E0"/>
</linearGradient>
<linearGradient id="paint9_linear_1789_1586" x1="181.941" y1="99.9681" x2="192.554" y2="84.2082" gradientUnits="userSpaceOnUse">
<stop stop-color="#009091"/>
<stop offset="1" stop-color="#BAFFFD"/>
</linearGradient>
<linearGradient id="paint10_linear_1789_1586" x1="125.603" y1="60.3774" x2="187.717" y2="16.7359" gradientUnits="userSpaceOnUse">
<stop stop-color="#E5D7F7"/>
<stop offset="1" stop-color="#F5EEFF"/>
</linearGradient>
<linearGradient id="paint11_linear_1789_1586" x1="135.207" y1="29.2018" x2="147.565" y2="23.0746" gradientUnits="userSpaceOnUse">
<stop stop-color="#00BEBF"/>
<stop offset="1" stop-color="#39E6E0"/>
</linearGradient>
<linearGradient id="paint12_linear_1789_1586" x1="140.797" y1="29.8332" x2="142.734" y2="22.0668" gradientUnits="userSpaceOnUse">
<stop stop-color="#00AAAB"/>
<stop offset="1" stop-color="#B8E6E5"/>
</linearGradient>
<linearGradient id="paint13_linear_1789_1586" x1="135.926" y1="54.73" x2="154.68" y2="45.432" gradientUnits="userSpaceOnUse">
<stop stop-color="#00BEBF"/>
<stop offset="1" stop-color="#39E6E0"/>
</linearGradient>
<linearGradient id="paint14_linear_1789_1586" x1="144.671" y1="54.6433" x2="147.089" y2="44.9459" gradientUnits="userSpaceOnUse">
<stop stop-color="#00AAAB"/>
<stop offset="1" stop-color="#B8E6E5"/>
</linearGradient>
<linearGradient id="paint15_linear_1789_1586" x1="140.458" y1="66.4572" x2="174.809" y2="9.28791" gradientUnits="userSpaceOnUse">
<stop stop-color="#C1A8E3"/>
<stop offset="1" stop-color="#FEFEFE"/>
</linearGradient>
<linearGradient id="paint16_linear_1789_1586" x1="94.7267" y1="56.6292" x2="104.246" y2="45.4434" gradientUnits="userSpaceOnUse">
<stop stop-color="#00BEBF"/>
<stop offset="1" stop-color="#39E6E0"/>
</linearGradient>
<linearGradient id="paint17_linear_1789_1586" x1="93.0134" y1="52.7982" x2="106.46" y2="48.6872" gradientUnits="userSpaceOnUse">
<stop stop-color="#00AAAB"/>
<stop offset="1" stop-color="#B8E6E5"/>
</linearGradient>
<linearGradient id="paint18_linear_1789_1586" x1="101.041" y1="46.9414" x2="97.8111" y2="54.4282" gradientUnits="userSpaceOnUse">
<stop offset="0.0038" stop-color="white"/>
<stop offset="1" stop-color="#EBEBEB"/>
</linearGradient>
<linearGradient id="paint19_linear_1789_1586" x1="69.735" y1="76.7958" x2="76.0169" y2="69.0182" gradientUnits="userSpaceOnUse">
<stop stop-color="#594AD9"/>
<stop offset="1" stop-color="#8153F0"/>
</linearGradient>
<linearGradient id="paint20_linear_1789_1586" x1="72.2767" y1="77.6776" x2="73.6478" y2="67.9216" gradientUnits="userSpaceOnUse">
<stop stop-color="#3D2FBA"/>
<stop offset="1" stop-color="#9D7AF0"/>
</linearGradient>
<linearGradient id="paint21_linear_1789_1586" x1="72.064" y1="75.4146" x2="74.2858" y2="70.2641" gradientUnits="userSpaceOnUse">
<stop offset="0.0038" stop-color="white"/>
<stop offset="1" stop-color="#EBEBEB"/>
</linearGradient>
<linearGradient id="paint22_linear_1789_1586" x1="-nan" y1="-nan" x2="-nan" y2="-nan" gradientUnits="userSpaceOnUse">
<stop stop-color="#00BEBF"/>
<stop offset="1" stop-color="#39E6E0"/>
</linearGradient>
<linearGradient id="paint23_linear_1789_1586" x1="-nan" y1="-nan" x2="-nan" y2="-nan" gradientUnits="userSpaceOnUse">
<stop stop-color="#00BEBF"/>
<stop offset="1" stop-color="#39E6E0"/>
</linearGradient>
<linearGradient id="paint24_linear_1789_1586" x1="-nan" y1="-nan" x2="-nan" y2="-nan" gradientUnits="userSpaceOnUse">
<stop stop-color="#00BEBF"/>
<stop offset="1" stop-color="#39E6E0"/>
</linearGradient>
<linearGradient id="paint25_linear_1789_1586" x1="167.033" y1="122.548" x2="175.656" y2="111.872" gradientUnits="userSpaceOnUse">
<stop stop-color="#594AD9"/>
<stop offset="1" stop-color="#8153F0"/>
</linearGradient>
<linearGradient id="paint26_linear_1789_1586" x1="170.537" y1="123.652" x2="172.389" y2="110.474" gradientUnits="userSpaceOnUse">
<stop stop-color="#3D2FBA"/>
<stop offset="1" stop-color="#9D7AF0"/>
</linearGradient>
<linearGradient id="paint27_linear_1789_1586" x1="-6.9422" y1="76.2892" x2="24.5897" y2="90.6789" gradientUnits="userSpaceOnUse">
<stop stop-color="#00BEBF"/>
<stop offset="1" stop-color="#39E6E0"/>
</linearGradient>
<linearGradient id="paint28_linear_1789_1586" x1="17.8967" y1="95.8379" x2="25.2156" y2="91.3695" gradientUnits="userSpaceOnUse">
<stop stop-color="#00B0BF"/>
<stop offset="1" stop-color="#39E6E0"/>
</linearGradient>
<linearGradient id="paint29_linear_1789_1586" x1="19.2996" y1="101.499" x2="28.1432" y2="98.4531" gradientUnits="userSpaceOnUse">
<stop stop-color="#4B3EB8"/>
<stop offset="1" stop-color="#8153F0"/>
</linearGradient>
<linearGradient id="paint30_linear_1789_1586" x1="4.24754e-07" y1="113.594" x2="12" y2="108.5" gradientUnits="userSpaceOnUse">
<stop stop-color="#7366FF"/>
<stop offset="1" stop-color="#563EE0"/>
</linearGradient>
<linearGradient id="paint31_linear_1789_1586" x1="4.13745" y1="110.984" x2="39.4176" y2="110.984" gradientUnits="userSpaceOnUse">
<stop stop-color="#7366FF"/>
<stop offset="1" stop-color="#563EE0"/>
</linearGradient>
<linearGradient id="paint32_linear_1789_1586" x1="3.44487" y1="89.4597" x2="28.7925" y2="105.799" gradientUnits="userSpaceOnUse">
<stop stop-color="#594AD9"/>
<stop offset="1" stop-color="#BFAAF0"/>
</linearGradient>
<linearGradient id="paint33_linear_1789_1586" x1="10.487" y1="84.2561" x2="29.3969" y2="92.8857" gradientUnits="userSpaceOnUse">
<stop stop-color="#00BEBF"/>
<stop offset="1" stop-color="#DEFFFD"/>
</linearGradient>
<linearGradient id="paint34_linear_1789_1586" x1="73.9002" y1="133.965" x2="124.309" y2="133.965" gradientUnits="userSpaceOnUse">
<stop stop-color="#E5D7F7"/>
<stop offset="1" stop-color="#F5EEFF"/>
</linearGradient>
<linearGradient id="paint35_linear_1789_1586" x1="74.3902" y1="150.635" x2="123.819" y2="117.295" gradientUnits="userSpaceOnUse">
<stop stop-color="#C1A8E3"/>
<stop offset="1" stop-color="#FEFEFE"/>
</linearGradient>
<linearGradient id="paint36_linear_1789_1586" x1="79.5538" y1="147.232" x2="86.1437" y2="130.436" gradientUnits="userSpaceOnUse">
<stop stop-color="#00BEBF"/>
<stop offset="1" stop-color="#39E6E0"/>
</linearGradient>
<linearGradient id="paint37_linear_1789_1586" x1="79.7616" y1="146.702" x2="86.0631" y2="130.641" gradientUnits="userSpaceOnUse">
<stop stop-color="#00A7A8"/>
<stop offset="1" stop-color="#C9FFFE"/>
</linearGradient>
<linearGradient id="paint38_linear_1789_1586" x1="102.306" y1="147.442" x2="106.614" y2="136.461" gradientUnits="userSpaceOnUse">
<stop stop-color="#00BEBF"/>
<stop offset="1" stop-color="#39E6E0"/>
</linearGradient>
<linearGradient id="paint39_linear_1789_1586" x1="102.43" y1="147.126" x2="106.573" y2="136.565" gradientUnits="userSpaceOnUse">
<stop stop-color="#00A7A8"/>
<stop offset="1" stop-color="#C9FFFE"/>
</linearGradient>
<linearGradient id="paint40_linear_1789_1586" x1="90.2442" y1="147.686" x2="97.0593" y2="125.284" gradientUnits="userSpaceOnUse">
<stop stop-color="#594AD9"/>
<stop offset="1" stop-color="#8153F0"/>
</linearGradient>
<linearGradient id="paint41_linear_1789_1586" x1="90.5395" y1="146.715" x2="96.8741" y2="125.892" gradientUnits="userSpaceOnUse">
<stop stop-color="#4234BA"/>
<stop offset="1" stop-color="#AE92F0"/>
</linearGradient>
<linearGradient id="paint42_linear_1789_1586" x1="111.115" y1="147.707" x2="119.343" y2="120.663" gradientUnits="userSpaceOnUse">
<stop stop-color="#594AD9"/>
<stop offset="1" stop-color="#8153F0"/>
</linearGradient>
<linearGradient id="paint43_linear_1789_1586" x1="111.478" y1="146.517" x2="119.114" y2="121.415" gradientUnits="userSpaceOnUse">
<stop stop-color="#4234BA"/>
<stop offset="1" stop-color="#AE92F0"/>
</linearGradient>
<linearGradient id="paint44_linear_1789_1586" x1="-nan" y1="-nan" x2="-nan" y2="-nan" gradientUnits="userSpaceOnUse">
<stop stop-color="#00BEBF"/>
<stop offset="1" stop-color="#39E6E0"/>
</linearGradient>
<linearGradient id="paint45_linear_1789_1586" x1="-nan" y1="-nan" x2="-nan" y2="-nan" gradientUnits="userSpaceOnUse">
<stop stop-color="#00BEBF"/>
<stop offset="1" stop-color="#39E6E0"/>
</linearGradient>
<linearGradient id="paint46_linear_1789_1586" x1="-nan" y1="-nan" x2="-nan" y2="-nan" gradientUnits="userSpaceOnUse">
<stop stop-color="#00BEBF"/>
<stop offset="1" stop-color="#39E6E0"/>
</linearGradient>
</defs>
</svg>
